{"accessors" : [{"bufferView" : 0, "byteOffset" : 0, "componentType" : 5123, "count" : 1800, "type" : "SCALAR", "max" : [1799], "min" : [0]}, {"bufferView" : 1, "byteOffset" : 0, "componentType" : 5126, "count" : 1800, "type" : "VEC3", "max" : [3.9600000381469727, 5, 3.9600000381469727], "min" : [-3.9600000381469727, 0.019999999552965164, -3.9600000381469727], "name" : "POSITION"}, {"bufferView" : 1, "byteOffset" : 12, "componentType" : 5126, "count" : 1800, "type" : "VEC2", "max" : [0.9750000238418579, 0.9779999852180481], "min" : [0.013000000268220901, 0.015999972820281982], "name" : "TEXCOORD_0"}], "asset" : {"generator" : "Aspose.3D 25.3.0", "version" : "2.0"}, "buffers" : [{"uri" : "data:application/octet-stream;base64,", "byteLength" : 39608}], "bufferViews" : [{"buffer" : 0, "byteOffset" : 0, "byteLength" : 3600, "target" : 34963}, {"buffer" : 0, "byteOffset" : 3604, "byteLength" : 36000, "byteStride" : 20, "target" : 34962}], "materials" : [{"name" : "MB|310", "pbrMetallicRoughness" : {"baseColorFactor" : [0.7379104087672317, 0.5332764040016892, 0.181164244239483, 1], "metallicFactor" : 1, "roughnessFactor" : 1}, "emissiveFactor" : [0, 0, 0], "alphaMode" : "OPAQUE", "doubleSided" : false}], "meshes" : [{"primitives" : [{"attributes" : {"POSITION" : 1, "TEXCOORD_0" : 2}, "indices" : 0, "material" : 0, "mode" : 4}], "name" : ""}], "nodes" : [{"mesh" : 0, "name" : "Part.0"}], "scene" : 0, "scenes" : [{"nodes" : [0]}]}