{
  "accessors": [
    {
      "name": "Part.1-Mesh_0_positions",
      "componentType": 5126,
      "count": 1843,
      "min": [
        -15.960000038146973,
        0.019999999552965164,
        -3.9600000381469727
      ],
      "max": [
        15.960000038146973,
        11.522000312805176,
        3.9600000381469727
      ],
      "type": "VEC3",
      "bufferView": 0,
      "byteOffset": 0
    },
    {
      "name": "Part.1-Mesh_0_indices",
      "componentType": 5123,
      "count": 7650,
      "min": [
        0
      ],
      "max": [
        1842
      ],
      "type": "SCALAR",
      "bufferView": 1,
      "byteOffset": 0
    }
  ],
  "asset": {
    "generator": "obj2gltf",
    "version": "2.0"
  },
  "buffers": [
    {
      "name": "Untitled Model",
      "byteLength": 37416,
      "uri": "data:application/octet-stream;base64,"
    }
  ],
  "bufferViews": [
    {
      "name": "bufferView_0",
      "buffer": 0,
      "byteLength": 22116,
      "byteOffset": 0,
      "byteStride": 12,
      "target": 34962
    },
    {
      "name": "bufferView_1",
      "buffer": 0,
      "byteLength": 15300,
      "byteOffset": 22116,
      "target": 34963
    }
  ],
  "materials": [
    {
      "name": "MB_23",
      "pbrMetallicRoughness": {
        "baseColorFactor": [
          0.019382360952473074,
          0.08650046202808521,
          0.38642943377667954,
          1
        ],
        "metallicFactor": 0,
        "roughnessFactor": 1
      },
      "emissiveFactor": [
        0,
        0,
        0
      ],
      "alphaMode": "OPAQUE",
      "doubleSided": false
    }
  ],
  "meshes": [
    {
      "name": "Part.1-Mesh",
      "primitives": [
        {
          "attributes": {
            "POSITION": 0
          },
          "indices": 1,
          "material": 0,
          "mode": 4
        }
      ]
    }
  ],
  "nodes": [
    {
      "name": "Part.1",
      "mesh": 0
    }
  ],
  "scene": 0,
  "scenes": [
    {
      "nodes": [
        0
      ]
    }
  ]
}
