# www.mecabricks.com
mtllib Untitled Model.mtl
o Part.1
v 15.96 0.02 3.96
v 15.96 9.58 3.96
v 14.4 0.02 2.4
v 14.4 8.5 2.4
v 8.4 2.1 2.4
v 8.4 8.5 2.4
v 9.478 0.02 0.612
v 9.131 0.02 1.131
v 8.612 0.02 1.478
v 8 0.02 1.6
v 8.612 8.5 1.478
v 9.131 8.5 1.131
v 9.478 8.5 0.612
v 8.4 2.1 1.52
v 8.4 8.5 1.52
v 12 9.58 3.96
v 12 0.02 2.4
v 0.612 0.02 1.478
v 1.131 0.02 1.131
v 1.478 0.02 0.612
v 12 0.02 3.96
v 12 8.5 2.4
v 6.522 8.5 0.612
v 6.869 8.5 1.131
v 8 0.02 3.96
v 8 8.5 2.4
v 8 9.58 3.96
v 8 2.1 2.4
v 8 2.1 1.6
v 7.388 8.5 1.478
v 8 8.5 1.6
v 7.388 0.02 1.478
v 6.869 0.02 1.131
v 6.522 0.02 0.612
v 7.6 8.5 2.4
v 7.6 2.1 2.4
v 7.6 2.1 1.52
v 7.6 8.5 1.52
v 4 0.02 2.4
v 4 8.5 2.4
v 8 0.02 2.4
v 4 0.02 3.96
v 4 9.58 3.96
v 0.4 8.5 2.4
v 0.4 2.1 2.4
v 0.4 8.5 1.52
v 0.4 2.1 1.52
v 1.478 8.5 0.612
v 1.131 8.5 1.131
v 0.612 8.5 1.478
v -15.96 0.02 3.96
v -15.96 9.58 3.96
v -14.4 0.02 2.4
v -14.4 8.5 2.4
v -8.4 2.1 2.4
v -8.4 8.5 2.4
v -9.478 0.02 0.612
v -9.131 0.02 1.131
v -8.612 0.02 1.478
v -8 0.02 1.6
v -8.612 8.5 1.478
v -9.131 8.5 1.131
v -9.478 8.5 0.612
v -8.4 2.1 1.52
v -8.4 8.5 1.52
v -12 9.58 3.96
v -12 0.02 2.4
v 0 0.02 1.6
v -0.612 0.02 1.478
v -1.131 0.02 1.131
v -1.478 0.02 0.612
v -12 0.02 3.96
v -12 8.5 2.4
v -6.522 8.5 0.612
v -6.869 8.5 1.131
v -8 0.02 3.96
v -8 8.5 2.4
v -8 9.58 3.96
v -8 2.1 2.4
v -8 2.1 1.6
v -7.388 8.5 1.478
v -8 8.5 1.6
v -7.388 0.02 1.478
v -6.869 0.02 1.131
v -6.522 0.02 0.612
v -7.6 8.5 2.4
v -7.6 2.1 2.4
v -7.6 2.1 1.52
v -7.6 8.5 1.52
v -4 0.02 2.4
v -4 8.5 2.4
v -8 0.02 2.4
v 0 0.02 2.4
v 0 8.5 1.6
v 0 2.1 1.6
v 0 2.1 2.4
v 0 9.58 3.96
v 0 8.5 2.4
v 0 0.02 3.96
v -4 0.02 3.96
v -4 9.58 3.96
v -0.4 8.5 2.4
v -0.4 2.1 2.4
v -0.4 8.5 1.52
v -0.4 2.1 1.52
v -1.478 8.5 0.612
v -1.131 8.5 1.131
v -0.612 8.5 1.478
v 15.96 0.02 -3.96
v 15.96 9.58 -3.96
v 14.4 0.02 -2.4
v 14.4 8.5 -2.4
v 8.4 2.1 -2.4
v 8.4 8.5 -2.4
v 9.478 0.02 -0.612
v 9.131 0.02 -1.131
v 8.612 0.02 -1.478
v 8 0.02 -1.6
v 8.612 8.5 -1.478
v 9.131 8.5 -1.131
v 9.478 8.5 -0.612
v 8.4 2.1 -1.52
v 8.4 8.5 -1.52
v 12 9.58 -3.96
v 12 0.02 -2.4
v 0.612 0.02 -1.478
v 1.131 0.02 -1.131
v 1.478 0.02 -0.612
v 12 0.02 -3.96
v 12 8.5 -2.4
v 6.522 8.5 -0.612
v 6.869 8.5 -1.131
v 8 0.02 -3.96
v 8 8.5 -2.4
v 8 9.58 -3.96
v 8 2.1 -2.4
v 8 2.1 -1.6
v 7.388 8.5 -1.478
v 8 8.5 -1.6
v 7.388 0.02 -1.478
v 6.869 0.02 -1.131
v 6.522 0.02 -0.612
v 7.6 8.5 -2.4
v 7.6 2.1 -2.4
v 7.6 2.1 -1.52
v 7.6 8.5 -1.52
v 4 0.02 -2.4
v 4 8.5 -2.4
v 8 0.02 -2.4
v 1.6 0.02 0
v 4 0.02 -3.96
v 4 9.58 -3.96
v 9.6 0.02 0
v 9.6 8.5 0
v 8 0.02 0
v 15.96 0.02 0
v 15.96 9.58 0
v 14.4 0.02 0
v 14.4 8.5 0
v 0.4 8.5 -2.4
v 6.4 8.5 0
v 12 9.58 0
v 0.4 2.1 -2.4
v 4 8.5 0
v 1.6 8.5 0
v 12 8.5 0
v 6.4 0.02 0
v 4 9.58 0
v 8 9.58 0
v 8 8.5 0
v 0.4 8.5 -1.52
v 0.4 2.1 -1.52
v 1.478 8.5 -0.612
v 1.131 8.5 -1.131
v 0.612 8.5 -1.478
v -15.96 0.02 -3.96
v -15.96 9.58 -3.96
v -14.4 0.02 -2.4
v -14.4 8.5 -2.4
v -8.4 2.1 -2.4
v -8.4 8.5 -2.4
v -9.478 0.02 -0.612
v -9.131 0.02 -1.131
v -8.612 0.02 -1.478
v -8 0.02 -1.6
v -8.612 8.5 -1.478
v -9.131 8.5 -1.131
v -9.478 8.5 -0.612
v -8.4 2.1 -1.52
v -8.4 8.5 -1.52
v -12 9.58 -3.96
v -12 0.02 -2.4
v 0 0.02 -1.6
v -0.612 0.02 -1.478
v -1.131 0.02 -1.131
v -1.478 0.02 -0.612
v -12 0.02 -3.96
v -12 8.5 -2.4
v -6.522 8.5 -0.612
v -6.869 8.5 -1.131
v -8 0.02 -3.96
v -8 8.5 -2.4
v -8 9.58 -3.96
v -8 2.1 -2.4
v -8 2.1 -1.6
v -7.388 8.5 -1.478
v -8 8.5 -1.6
v -7.388 0.02 -1.478
v -6.869 0.02 -1.131
v -6.522 0.02 -0.612
v -7.6 8.5 -2.4
v -7.6 2.1 -2.4
v -7.6 2.1 -1.52
v -7.6 8.5 -1.52
v -4 0.02 -2.4
v -4 8.5 -2.4
v -8 0.02 -2.4
v -1.6 0.02 0
v 0 0.02 -2.4
v 0 8.5 -1.6
v 0 2.1 -1.6
v 0 2.1 -2.4
v 0 9.58 -3.96
v 0 8.5 -2.4
v 0 0.02 -3.96
v -4 0.02 -3.96
v -4 9.58 -3.96
v 0 8.5 0
v 0 9.58 0
v -9.6 0.02 0
v -9.6 8.5 0
v -8 0.02 0
v -15.96 0.02 0
v -15.96 9.58 0
v -14.4 0.02 0
v -14.4 8.5 0
v -0.4 8.5 -2.4
v -6.4 8.5 0
v -12 9.58 0
v -0.4 2.1 -2.4
v -4 8.5 0
v 0 0.02 0
v -1.6 8.5 0
v -12 8.5 0
v -6.4 0.02 0
v -4 9.58 0
v -8 9.58 0
v -8 8.5 0
v -0.4 8.5 -1.52
v -0.4 2.1 -1.52
v -1.478 8.5 -0.612
v -1.131 8.5 -1.131
v -0.612 8.5 -1.478
v 15.96 0.02 0
v 15.96 0.02 3.96
v 15.96 0.02 3.96
v 15.96 9.58 3.96
v 15.96 9.58 3.96
v 14.4 0.02 2.4
v 14.4 0.02 2.4
v 14.4 8.5 2.4
v 14.4 8.5 2.4
v 14.4 8.5 0
v 8.4 2.1 1.52
v 8.4 2.1 2.4
v 9.6 0.02 0
v 9.478 0.02 0.612
v 9.131 0.02 1.131
v 8.612 0.02 1.478
v 8 0.02 1.6
v 15.96 9.58 0
v 14.4 0.02 0
v 8 9.58 3.96
v 12 9.58 3.96
v 12 0.02 3.96
v 12 8.5 2.4
v 0.612 0.02 1.478
v 0 0.02 1.6
v 1.131 0.02 1.131
v 8 0.02 2.4
v 4 0.02 2.4
v 1.478 0.02 0.612
v 1.6 0.02 0
v 4 0.02 3.96
v 8 0.02 3.96
v 6.869 0.02 1.131
v 7.388 0.02 1.478
v 6.522 0.02 0.612
v 6.4 0.02 0
v 7.6 2.1 1.52
v 7.6 2.1 2.4
v 0 0.02 2.4
v 4 8.5 2.4
v 0 8.5 2.4
v 4 9.58 3.96
v 0 0.02 3.96
v 0 9.58 3.96
v 8 8.5 2.4
v 12 0.02 2.4
v 0.4 2.1 1.52
v 0.4 2.1 2.4
v -15.96 0.02 0
v -15.96 0.02 3.96
v -15.96 0.02 3.96
v -15.96 9.58 3.96
v -15.96 9.58 3.96
v -14.4 0.02 2.4
v -14.4 0.02 2.4
v -14.4 8.5 2.4
v -14.4 8.5 2.4
v -14.4 8.5 0
v -8.4 2.1 1.52
v -8.4 2.1 2.4
v -9.6 0.02 0
v -9.478 0.02 0.612
v -9.131 0.02 1.131
v -8.612 0.02 1.478
v -8 0.02 1.6
v -15.96 9.58 0
v -14.4 0.02 0
v -8 9.58 3.96
v -12 9.58 3.96
v -12 0.02 3.96
v -12 8.5 2.4
v -0.612 0.02 1.478
v -1.131 0.02 1.131
v -8 0.02 2.4
v -4 0.02 2.4
v -1.478 0.02 0.612
v -1.6 0.02 0
v -4 0.02 3.96
v -8 0.02 3.96
v -6.869 0.02 1.131
v -7.388 0.02 1.478
v -6.522 0.02 0.612
v -6.4 0.02 0
v -7.6 2.1 1.52
v -7.6 2.1 2.4
v -4 8.5 2.4
v -4 9.58 3.96
v -8 8.5 2.4
v -12 0.02 2.4
v -0.4 2.1 1.52
v -0.4 2.1 2.4
v 15.96 0.02 -3.96
v 15.96 0.02 -3.96
v 15.96 9.58 -3.96
v 15.96 9.58 -3.96
v 14.4 0.02 -2.4
v 14.4 0.02 -2.4
v 14.4 8.5 -2.4
v 14.4 8.5 -2.4
v 8.4 2.1 -1.52
v 8.4 2.1 -2.4
v 9.478 0.02 -0.612
v 9.131 0.02 -1.131
v 8.612 0.02 -1.478
v 8 0.02 -1.6
v 8 9.58 -3.96
v 12 9.58 -3.96
v 12 0.02 -3.96
v 12 8.5 -2.4
v 0.612 0.02 -1.478
v 0 0.02 -1.6
v 1.131 0.02 -1.131
v 8 0.02 -2.4
v 4 0.02 -2.4
v 1.478 0.02 -0.612
v 4 0.02 -3.96
v 8 0.02 -3.96
v 6.869 0.02 -1.131
v 7.388 0.02 -1.478
v 6.522 0.02 -0.612
v 7.6 2.1 -1.52
v 7.6 2.1 -2.4
v 0 0.02 -2.4
v 4 8.5 -2.4
v 0 8.5 -2.4
v 4 9.58 -3.96
v 0 0.02 -3.96
v 0 9.58 -3.96
v 8 8.5 -2.4
v 12 0.02 -2.4
v 0.4 2.1 -1.52
v 0.4 2.1 -2.4
v -15.96 0.02 -3.96
v -15.96 0.02 -3.96
v -15.96 9.58 -3.96
v -15.96 9.58 -3.96
v -14.4 0.02 -2.4
v -14.4 0.02 -2.4
v -14.4 8.5 -2.4
v -14.4 8.5 -2.4
v -8.4 2.1 -1.52
v -8.4 2.1 -2.4
v -9.478 0.02 -0.612
v -9.131 0.02 -1.131
v -8.612 0.02 -1.478
v -8 0.02 -1.6
v -8 9.58 -3.96
v -12 9.58 -3.96
v -12 0.02 -3.96
v -12 8.5 -2.4
v -0.612 0.02 -1.478
v -1.131 0.02 -1.131
v -8 0.02 -2.4
v -4 0.02 -2.4
v -1.478 0.02 -0.612
v -4 0.02 -3.96
v -8 0.02 -3.96
v -6.869 0.02 -1.131
v -7.388 0.02 -1.478
v -6.522 0.02 -0.612
v -7.6 2.1 -1.52
v -7.6 2.1 -2.4
v -4 8.5 -2.4
v -4 9.58 -3.96
v -8 8.5 -2.4
v -12 0.02 -2.4
v -0.4 2.1 -1.52
v -0.4 2.1 -2.4
v -11.082 11.15 -2.217
v -11.179 11.4 -1.982
v -11.11 11.327 -2.148
v -10.483 11.4 -1.517
v -10.303 11.15 -1.697
v -10.356 11.327 -1.644
v -9.783 11.15 -0.918
v -10.018 11.4 -0.821
v -9.852 11.327 -0.89
v -9.855 11.4 0
v -9.6 11.15 0
v -9.675 11.327 0
v -9.783 11.15 0.918
v -10.018 11.4 0.821
v -9.852 11.327 0.89
v -10.303 11.15 1.697
v -10.483 11.4 1.517
v -10.356 11.327 1.644
v -11.082 11.15 2.217
v -11.179 11.4 1.982
v -11.11 11.327 2.148
v -12 11.15 2.4
v -12 11.4 2.145
v -12 11.327 2.325
v -12.821 11.4 1.982
v -12.918 11.15 2.217
v -12.89 11.327 2.148
v -13.697 11.15 1.697
v -13.517 11.4 1.517
v -13.644 11.327 1.644
v -14.217 11.15 0.918
v -13.982 11.4 0.821
v -14.148 11.327 0.89
v -14.4 11.15 0
v -14.145 11.4 0
v -14.325 11.327 0
v -14.217 11.15 -0.918
v -13.982 11.4 -0.821
v -14.148 11.327 -0.89
v -13.517 11.4 -1.517
v -13.697 11.15 -1.697
v -13.644 11.327 -1.644
v -12.918 11.15 -2.217
v -12.821 11.4 -1.982
v -12.89 11.327 -2.148
v -12 11.15 -2.4
v -12 11.4 -2.145
v -12 11.327 -2.325
v -10.937 11.4 1.014
v -10.836 11.4 0
v -10.937 11.4 -1.014
v -12 11.4 1.097
v -12 11.4 0
v -12 11.4 -1.097
v -13.063 11.4 1.014
v -13.164 11.4 0
v -13.063 11.4 -1.014
v -12 9.73 -2.4
v -12 9.58 -2.553
v -12 9.624 -2.445
v -12.977 9.58 -2.359
v -12.918 9.73 -2.217
v -12.936 9.624 -2.259
v -13.805 9.58 -1.805
v -13.697 9.73 -1.697
v -13.729 9.624 -1.729
v -14.359 9.58 -0.977
v -14.217 9.73 -0.918
v -14.259 9.624 -0.936
v -14.553 9.58 0
v -14.4 9.73 0
v -14.445 9.624 0
v -14.359 9.58 0.977
v -14.217 9.73 0.918
v -14.259 9.624 0.936
v -13.805 9.58 1.805
v -13.697 9.73 1.697
v -13.729 9.624 1.729
v -12.977 9.58 2.359
v -12.918 9.73 2.217
v -12.936 9.624 2.259
v -12 9.58 2.553
v -12 9.73 2.4
v -12 9.624 2.445
v -11.023 9.58 2.359
v -11.082 9.73 2.217
v -11.064 9.624 2.259
v -10.195 9.58 1.805
v -10.303 9.73 1.697
v -10.271 9.624 1.729
v -9.641 9.58 0.977
v -9.783 9.73 0.918
v -9.741 9.624 0.936
v -9.447 9.58 0
v -9.6 9.73 0
v -9.555 9.624 0
v -9.641 9.58 -0.977
v -9.783 9.73 -0.918
v -9.741 9.624 -0.936
v -10.195 9.58 -1.805
v -10.303 9.73 -1.697
v -10.271 9.624 -1.729
v -11.023 9.58 -2.359
v -11.082 9.73 -2.217
v -11.064 9.624 -2.259
v -3.082 11.15 -2.217
v -3.179 11.4 -1.982
v -3.11 11.327 -2.148
v -2.483 11.4 -1.517
v -2.303 11.15 -1.697
v -2.356 11.327 -1.644
v -1.783 11.15 -0.918
v -2.018 11.4 -0.821
v -1.852 11.327 -0.89
v -1.855 11.4 0
v -1.6 11.15 0
v -1.675 11.327 0
v -1.783 11.15 0.918
v -2.018 11.4 0.821
v -1.852 11.327 0.89
v -2.303 11.15 1.697
v -2.483 11.4 1.517
v -2.356 11.327 1.644
v -3.082 11.15 2.217
v -3.179 11.4 1.982
v -3.11 11.327 2.148
v -4 11.15 2.4
v -4 11.4 2.145
v -4 11.327 2.325
v -4.821 11.4 1.982
v -4.918 11.15 2.217
v -4.89 11.327 2.148
v -5.697 11.15 1.697
v -5.517 11.4 1.517
v -5.644 11.327 1.644
v -6.217 11.15 0.918
v -5.982 11.4 0.821
v -6.148 11.327 0.89
v -6.4 11.15 0
v -6.145 11.4 0
v -6.325 11.327 0
v -6.217 11.15 -0.918
v -5.982 11.4 -0.821
v -6.148 11.327 -0.89
v -5.517 11.4 -1.517
v -5.697 11.15 -1.697
v -5.644 11.327 -1.644
v -4.918 11.15 -2.217
v -4.821 11.4 -1.982
v -4.89 11.327 -2.148
v -4 11.15 -2.4
v -4 11.4 -2.145
v -4 11.327 -2.325
v -2.937 11.4 1.014
v -2.836 11.4 0
v -2.937 11.4 -1.014
v -4 11.4 1.097
v -4 11.4 0
v -4 11.4 -1.097
v -5.063 11.4 1.014
v -5.164 11.4 0
v -5.063 11.4 -1.014
v -4 9.73 -2.4
v -4 9.58 -2.553
v -4 9.624 -2.445
v -4.977 9.58 -2.359
v -4.918 9.73 -2.217
v -4.936 9.624 -2.259
v -5.805 9.58 -1.805
v -5.697 9.73 -1.697
v -5.729 9.624 -1.729
v -6.359 9.58 -0.977
v -6.217 9.73 -0.918
v -6.259 9.624 -0.936
v -6.553 9.58 0
v -6.4 9.73 0
v -6.445 9.624 0
v -6.359 9.58 0.977
v -6.217 9.73 0.918
v -6.259 9.624 0.936
v -5.805 9.58 1.805
v -5.697 9.73 1.697
v -5.729 9.624 1.729
v -4.977 9.58 2.359
v -4.918 9.73 2.217
v -4.936 9.624 2.259
v -4 9.58 2.553
v -4 9.73 2.4
v -4 9.624 2.445
v -3.023 9.58 2.359
v -3.082 9.73 2.217
v -3.064 9.624 2.259
v -2.195 9.58 1.805
v -2.303 9.73 1.697
v -2.271 9.624 1.729
v -1.641 9.58 0.977
v -1.783 9.73 0.918
v -1.741 9.624 0.936
v -1.447 9.58 0
v -1.6 9.73 0
v -1.555 9.624 0
v -1.641 9.58 -0.977
v -1.783 9.73 -0.918
v -1.741 9.624 -0.936
v -2.195 9.58 -1.805
v -2.303 9.73 -1.697
v -2.271 9.624 -1.729
v -3.023 9.58 -2.359
v -3.082 9.73 -2.217
v -3.064 9.624 -2.259
v 4.918 11.15 -2.217
v 4.821 11.4 -1.982
v 4.89 11.327 -2.148
v 5.517 11.4 -1.517
v 5.697 11.15 -1.697
v 5.644 11.327 -1.644
v 6.217 11.15 -0.918
v 5.982 11.4 -0.821
v 6.148 11.327 -0.89
v 6.145 11.4 0
v 6.4 11.15 0
v 6.325 11.327 0
v 6.217 11.15 0.918
v 5.982 11.4 0.821
v 6.148 11.327 0.89
v 5.697 11.15 1.697
v 5.517 11.4 1.517
v 5.644 11.327 1.644
v 4.918 11.15 2.217
v 4.821 11.4 1.982
v 4.89 11.327 2.148
v 4 11.15 2.4
v 4 11.4 2.145
v 4 11.327 2.325
v 3.179 11.4 1.982
v 3.082 11.15 2.217
v 3.11 11.327 2.148
v 2.303 11.15 1.697
v 2.483 11.4 1.517
v 2.356 11.327 1.644
v 1.783 11.15 0.918
v 2.018 11.4 0.821
v 1.852 11.327 0.89
v 1.6 11.15 0
v 1.855 11.4 0
v 1.675 11.327 0
v 1.783 11.15 -0.918
v 2.018 11.4 -0.821
v 1.852 11.327 -0.89
v 2.483 11.4 -1.517
v 2.303 11.15 -1.697
v 2.356 11.327 -1.644
v 3.082 11.15 -2.217
v 3.179 11.4 -1.982
v 3.11 11.327 -2.148
v 4 11.15 -2.4
v 4 11.4 -2.145
v 4 11.327 -2.325
v 5.063 11.4 1.014
v 5.164 11.4 0
v 5.063 11.4 -1.014
v 4 11.4 1.097
v 4 11.4 0
v 4 11.4 -1.097
v 2.937 11.4 1.014
v 2.836 11.4 0
v 2.937 11.4 -1.014
v 4 9.73 -2.4
v 4 9.58 -2.553
v 4 9.624 -2.445
v 3.023 9.58 -2.359
v 3.082 9.73 -2.217
v 3.064 9.624 -2.259
v 2.195 9.58 -1.805
v 2.303 9.73 -1.697
v 2.271 9.624 -1.729
v 1.641 9.58 -0.977
v 1.783 9.73 -0.918
v 1.741 9.624 -0.936
v 1.447 9.58 0
v 1.6 9.73 0
v 1.555 9.624 0
v 1.641 9.58 0.977
v 1.783 9.73 0.918
v 1.741 9.624 0.936
v 2.195 9.58 1.805
v 2.303 9.73 1.697
v 2.271 9.624 1.729
v 3.023 9.58 2.359
v 3.082 9.73 2.217
v 3.064 9.624 2.259
v 4 9.58 2.553
v 4 9.73 2.4
v 4 9.624 2.445
v 4.977 9.58 2.359
v 4.918 9.73 2.217
v 4.936 9.624 2.259
v 5.805 9.58 1.805
v 5.697 9.73 1.697
v 5.729 9.624 1.729
v 6.359 9.58 0.977
v 6.217 9.73 0.918
v 6.259 9.624 0.936
v 6.553 9.58 0
v 6.4 9.73 0
v 6.445 9.624 0
v 6.359 9.58 -0.977
v 6.217 9.73 -0.918
v 6.259 9.624 -0.936
v 5.805 9.58 -1.805
v 5.697 9.73 -1.697
v 5.729 9.624 -1.729
v 4.977 9.58 -2.359
v 4.918 9.73 -2.217
v 4.936 9.624 -2.259
v 12.918 11.15 -2.217
v 12.821 11.4 -1.982
v 12.89 11.327 -2.148
v 13.517 11.4 -1.517
v 13.697 11.15 -1.697
v 13.644 11.327 -1.644
v 14.217 11.15 -0.918
v 13.982 11.4 -0.821
v 14.148 11.327 -0.89
v 14.145 11.4 0
v 14.4 11.15 0
v 14.325 11.327 0
v 14.217 11.15 0.918
v 13.982 11.4 0.821
v 14.148 11.327 0.89
v 13.697 11.15 1.697
v 13.517 11.4 1.517
v 13.644 11.327 1.644
v 12.918 11.15 2.217
v 12.821 11.4 1.982
v 12.89 11.327 2.148
v 12 11.15 2.4
v 12 11.4 2.145
v 12 11.327 2.325
v 11.179 11.4 1.982
v 11.082 11.15 2.217
v 11.11 11.327 2.148
v 10.303 11.15 1.697
v 10.483 11.4 1.517
v 10.356 11.327 1.644
v 9.783 11.15 0.918
v 10.018 11.4 0.821
v 9.852 11.327 0.89
v 9.6 11.15 0
v 9.855 11.4 0
v 9.675 11.327 0
v 9.783 11.15 -0.918
v 10.018 11.4 -0.821
v 9.852 11.327 -0.89
v 10.483 11.4 -1.517
v 10.303 11.15 -1.697
v 10.356 11.327 -1.644
v 11.082 11.15 -2.217
v 11.179 11.4 -1.982
v 11.11 11.327 -2.148
v 12 11.15 -2.4
v 12 11.4 -2.145
v 12 11.327 -2.325
v 13.063 11.4 1.014
v 13.164 11.4 0
v 13.063 11.4 -1.014
v 12 11.4 1.097
v 12 11.4 0
v 12 11.4 -1.097
v 10.937 11.4 1.014
v 10.836 11.4 0
v 10.937 11.4 -1.014
v 12 9.73 -2.4
v 12 9.58 -2.553
v 12 9.624 -2.445
v 11.023 9.58 -2.359
v 11.082 9.73 -2.217
v 11.064 9.624 -2.259
v 10.195 9.58 -1.805
v 10.303 9.73 -1.697
v 10.271 9.624 -1.729
v 9.641 9.58 -0.977
v 9.783 9.73 -0.918
v 9.741 9.624 -0.936
v 9.447 9.58 0
v 9.6 9.73 0
v 9.555 9.624 0
v 9.641 9.58 0.977
v 9.783 9.73 0.918
v 9.741 9.624 0.936
v 10.195 9.58 1.805
v 10.303 9.73 1.697
v 10.271 9.624 1.729
v 11.023 9.58 2.359
v 11.082 9.73 2.217
v 11.064 9.624 2.259
v 12 9.58 2.553
v 12 9.73 2.4
v 12 9.624 2.445
v 12.977 9.58 2.359
v 12.918 9.73 2.217
v 12.936 9.624 2.259
v 13.805 9.58 1.805
v 13.697 9.73 1.697
v 13.729 9.624 1.729
v 14.359 9.58 0.977
v 14.217 9.73 0.918
v 14.259 9.624 0.936
v 14.553 9.58 0
v 14.4 9.73 0
v 14.445 9.624 0
v 14.359 9.58 -0.977
v 14.217 9.73 -0.918
v 14.259 9.624 -0.936
v 13.805 9.58 -1.805
v 13.697 9.73 -1.697
v 13.729 9.624 -1.729
v 12.977 9.58 -2.359
v 12.918 9.73 -2.217
v 12.936 9.624 -2.259
v -11.156 11.52 0.325
v -11.206 11.4 0.325
v -11.206 11.4 0.795
v -11.156 11.52 0.858
v -11.933 11.4 0.628
v -11.983 11.52 0.667
v -11.933 11.4 0.328
v -12.083 11.4 0.328
v -12.034 11.52 0.328
v -12.083 11.4 0.593
v -12.034 11.52 0.656
v -12.811 11.4 0.426
v -12.86 11.52 0.465
v -12.86 11.52 -0.079
v -12.961 11.4 -0.079
v -12.911 11.52 -0.079
v -12.961 11.4 0.485
v -12.911 11.52 0.485
v -12.034 11.52 0.708
v -12.034 11.4 0.759
v -11.055 11.4 0.889
v -11.105 11.52 0.889
v -11.055 11.4 0.325
v -11.105 11.52 0.325
v -11.11 11.52 0.31
v -11.07 11.4 0.281
v -11.107 11.4 0.253
v -11.123 11.52 0.301
v -11.138 11.52 0.301
v -11.154 11.4 0.253
v -11.191 11.4 0.281
v -11.151 11.52 0.31
v -12.947 11.4 -0.123
v -12.906 11.52 -0.094
v -12.909 11.4 -0.151
v -12.894 11.52 -0.103
v -12.863 11.4 -0.151
v -12.878 11.52 -0.103
v -12.825 11.4 -0.123
v -12.865 11.52 -0.094
v -12.811 11.4 -0.079
v -12.957 11.4 0.51
v -12.91 11.52 0.494
v -12.945 11.4 0.532
v -12.906 11.52 0.501
v -12.926 11.4 0.549
v -12.899 11.52 0.507
v -12.903 11.4 0.559
v -12.892 11.52 0.51
v -11.983 11.4 0.77
v -11.983 11.52 0.719
v -12.069 11.4 0.284
v -12.029 11.52 0.313
v -12.031 11.4 0.257
v -12.016 11.52 0.304
v -11.985 11.4 0.257
v -12 11.52 0.304
v -11.947 11.4 0.284
v -11.988 11.52 0.313
v -11.983 11.52 0.328
v -11.063 11.4 0.922
v -11.108 11.52 0.901
v -11.084 11.4 0.948
v -11.115 11.52 0.909
v -11.114 11.4 0.963
v -11.125 11.52 0.914
v -11.148 11.4 0.963
v -11.136 11.52 0.914
v -12.678 11.52 -1.178
v -12.689 11.4 -1.13
v -11.485 11.4 -0.853
v -11.327 11.4 -1.535
v -11.339 11.52 -1.486
v -12.666 11.52 -1.227
v -11.35 11.52 -1.437
v -12.655 11.4 -1.276
v -11.452 11.4 -0.999
v -11.361 11.4 -1.389
v -12.565 11.4 -1.666
v -12.815 11.52 -1.251
v -12.849 11.4 -1.215
v -12.78 11.52 -1.288
v -12.747 11.4 -1.325
v -12.897 11.52 -1.383
v -12.945 11.4 -1.369
v -12.849 11.52 -1.398
v -12.801 11.4 -1.412
v -12.903 11.52 -1.539
v -12.951 11.4 -1.55
v -12.853 11.52 -1.527
v -12.805 11.4 -1.516
v -12.83 11.52 -1.676
v -12.866 11.4 -1.71
v -12.793 11.52 -1.641
v -12.756 11.4 -1.607
v -12.698 11.52 -1.758
v -12.712 11.4 -1.806
v -12.683 11.52 -1.71
v -12.668 11.4 -1.662
v -12.542 11.52 -1.763
v -12.531 11.4 -1.812
v -12.554 11.52 -1.714
v -11.168 11.4 -1.45
v -11.201 11.52 -1.413
v -11.236 11.52 -1.376
v -11.27 11.4 -1.34
v -11.072 11.4 -1.296
v -11.119 11.52 -1.281
v -11.168 11.52 -1.267
v -11.215 11.4 -1.252
v -11.065 11.4 -1.115
v -11.114 11.52 -1.126
v -11.163 11.52 -1.137
v -11.212 11.4 -1.149
v -11.151 11.4 -0.955
v -11.187 11.52 -0.989
v -11.224 11.52 -1.023
v -11.26 11.4 -1.057
v -11.304 11.4 -0.859
v -11.319 11.52 -0.906
v -11.334 11.52 -0.955
v -11.348 11.4 -1.002
v -11.474 11.52 -0.901
v -11.463 11.52 -0.95
v -11.463 11.52 -0.078
v -11.452 11.4 -0.127
v -12.592 11.4 -0.798
v -12.587 11.52 -0.847
v -12.578 11.4 -0.947
v -12.583 11.52 -0.897
v -11.485 11.4 0.02
v -11.474 11.52 -0.029
v -11.337 11.519 -0.614
v -11.992 11.399 -0.815
v -12.083 11.4 -0.742
v -12.034 11.52 -0.742
v -12.083 11.4 -0.537
v -12.034 11.52 -0.537
v -11.933 11.4 -0.537
v -11.983 11.52 -0.537
v -11.933 11.4 -0.648
v -11.983 11.52 -0.71
v -11.348 11.519 -0.565
v -12.536 11.4 -0.929
v -12.568 11.52 -0.891
v -12.512 11.4 -0.889
v -12.56 11.52 -0.878
v -12.516 11.4 -0.843
v -12.562 11.52 -0.862
v -12.547 11.4 -0.808
v -12.572 11.52 -0.851
v -12.678 11.52 -0.306
v -12.689 11.4 -0.257
v -12.666 11.52 -0.355
v -12.655 11.4 -0.404
v -12.815 11.521 -0.379
v -12.849 11.401 -0.343
v -12.78 11.521 -0.416
v -12.747 11.401 -0.452
v -12.897 11.522 -0.512
v -12.945 11.402 -0.496
v -12.848 11.521 -0.526
v -12.801 11.401 -0.54
v -12.902 11.522 -0.667
v -12.951 11.402 -0.677
v -12.852 11.521 -0.656
v -12.805 11.401 -0.644
v -12.828 11.521 -0.804
v -12.866 11.401 -0.837
v -12.791 11.521 -0.77
v -12.756 11.401 -0.735
v -12.696 11.52 -0.886
v -12.712 11.4 -0.933
v -12.681 11.52 -0.838
v -12.668 11.4 -0.79
v -11.333 11.519 -0.082
v -11.348 11.399 -0.13
v -11.304 11.399 0.013
v -11.319 11.519 -0.034
v -11.223 11.518 -0.15
v -11.26 11.399 -0.185
v -11.151 11.398 -0.083
v -11.186 11.518 -0.116
v -11.162 11.518 -0.264
v -11.212 11.398 -0.276
v -11.065 11.397 -0.242
v -11.113 11.517 -0.253
v -11.166 11.518 -0.394
v -11.215 11.398 -0.38
v -11.072 11.397 -0.424
v -11.118 11.518 -0.408
v -11.234 11.518 -0.504
v -11.27 11.399 -0.468
v -11.168 11.398 -0.577
v -11.2 11.518 -0.541
v -11.361 11.399 -0.516
v -11.327 11.399 -0.662
v -11.948 11.4 -0.492
v -11.988 11.52 -0.522
v -11.986 11.4 -0.465
v -12 11.52 -0.513
v -12.033 11.401 -0.465
v -12.016 11.52 -0.513
v -12.071 11.401 -0.492
v -12.029 11.52 -0.522
v -12.076 11.4 -0.774
v -12.031 11.52 -0.753
v -12.055 11.4 -0.8
v -12.024 11.52 -0.762
v -12.025 11.4 -0.815
v -12.014 11.52 -0.767
v -12.003 11.52 -0.767
v -11.156 11.52 1.19
v -11.206 11.4 1.19
v -11.206 11.4 1.66
v -11.156 11.52 1.723
v -12.869 11.4 1.278
v -12.88 11.52 1.326
v -12.908 11.52 1.338
v -12.95 11.4 1.312
v -12.961 11.4 1.357
v -12.911 11.52 1.353
v -12.905 11.52 1.367
v -12.942 11.4 1.4
v -12.903 11.4 1.424
v -12.892 11.52 1.375
v -11.055 11.4 1.755
v -11.105 11.52 1.755
v -11.151 11.52 1.175
v -11.191 11.4 1.146
v -11.138 11.52 1.166
v -11.154 11.4 1.119
v -11.123 11.52 1.166
v -11.107 11.4 1.119
v -11.11 11.52 1.175
v -11.07 11.4 1.146
v -11.105 11.52 1.19
v -11.055 11.4 1.19
v -12.896 11.52 1.327
v -12.915 11.4 1.282
v -11.063 11.4 1.787
v -11.108 11.52 1.766
v -11.084 11.4 1.814
v -11.115 11.52 1.775
v -11.114 11.4 1.828
v -11.125 11.52 1.779
v -11.148 11.4 1.828
v -11.136 11.52 1.779
v -11.206 11.4 0.795
v -11.933 11.4 0.628
v -12.083 11.4 0.593
v -12.811 11.4 0.426
v -11.933 11.4 -0.648
v -11.206 11.4 1.66
v 4.844 11.52 0.325
v 4.794 11.4 0.325
v 4.794 11.4 0.795
v 4.844 11.52 0.858
v 4.067 11.4 0.628
v 4.017 11.52 0.667
v 4.067 11.4 0.328
v 3.917 11.4 0.328
v 3.966 11.52 0.328
v 3.917 11.4 0.593
v 3.966 11.52 0.656
v 3.189 11.4 0.426
v 3.14 11.52 0.465
v 3.14 11.52 -0.079
v 3.039 11.4 -0.079
v 3.089 11.52 -0.079
v 3.039 11.4 0.485
v 3.089 11.52 0.485
v 3.966 11.52 0.708
v 3.966 11.4 0.759
v 4.945 11.4 0.889
v 4.895 11.52 0.889
v 4.945 11.4 0.325
v 4.895 11.52 0.325
v 4.89 11.52 0.31
v 4.93 11.4 0.281
v 4.893 11.4 0.253
v 4.877 11.52 0.301
v 4.862 11.52 0.301
v 4.846 11.4 0.253
v 4.809 11.4 0.281
v 4.849 11.52 0.31
v 3.053 11.4 -0.123
v 3.094 11.52 -0.094
v 3.091 11.4 -0.151
v 3.106 11.52 -0.103
v 3.137 11.4 -0.151
v 3.122 11.52 -0.103
v 3.175 11.4 -0.123
v 3.135 11.52 -0.094
v 3.189 11.4 -0.079
v 3.043 11.4 0.51
v 3.09 11.52 0.494
v 3.055 11.4 0.532
v 3.094 11.52 0.501
v 3.074 11.4 0.549
v 3.101 11.52 0.507
v 3.097 11.4 0.559
v 3.108 11.52 0.51
v 4.017 11.4 0.77
v 4.017 11.52 0.719
v 3.931 11.4 0.284
v 3.971 11.52 0.313
v 3.969 11.4 0.257
v 3.984 11.52 0.304
v 4.015 11.4 0.257
v 4 11.52 0.304
v 4.053 11.4 0.284
v 4.012 11.52 0.313
v 4.017 11.52 0.328
v 4.937 11.4 0.922
v 4.892 11.52 0.901
v 4.916 11.4 0.948
v 4.885 11.52 0.909
v 4.886 11.4 0.963
v 4.875 11.52 0.914
v 4.852 11.4 0.963
v 4.864 11.52 0.914
v 3.322 11.52 -1.178
v 3.311 11.4 -1.13
v 4.515 11.4 -0.853
v 4.673 11.4 -1.535
v 4.661 11.52 -1.486
v 3.334 11.52 -1.227
v 4.65 11.52 -1.437
v 3.345 11.4 -1.276
v 4.548 11.4 -0.999
v 4.639 11.4 -1.389
v 3.435 11.4 -1.666
v 3.185 11.52 -1.251
v 3.151 11.4 -1.215
v 3.22 11.52 -1.288
v 3.253 11.4 -1.325
v 3.103 11.52 -1.383
v 3.055 11.4 -1.369
v 3.151 11.52 -1.398
v 3.199 11.4 -1.412
v 3.097 11.52 -1.539
v 3.049 11.4 -1.55
v 3.147 11.52 -1.527
v 3.195 11.4 -1.516
v 3.17 11.52 -1.676
v 3.134 11.4 -1.71
v 3.207 11.52 -1.641
v 3.244 11.4 -1.607
v 3.302 11.52 -1.758
v 3.288 11.4 -1.806
v 3.317 11.52 -1.71
v 3.332 11.4 -1.662
v 3.458 11.52 -1.763
v 3.469 11.4 -1.812
v 3.446 11.52 -1.714
v 4.832 11.4 -1.45
v 4.799 11.52 -1.413
v 4.764 11.52 -1.376
v 4.73 11.4 -1.34
v 4.928 11.4 -1.296
v 4.881 11.52 -1.281
v 4.832 11.52 -1.267
v 4.785 11.4 -1.252
v 4.935 11.4 -1.115
v 4.886 11.52 -1.126
v 4.837 11.52 -1.137
v 4.788 11.4 -1.149
v 4.849 11.4 -0.955
v 4.813 11.52 -0.989
v 4.776 11.52 -1.023
v 4.74 11.4 -1.057
v 4.696 11.4 -0.859
v 4.681 11.52 -0.906
v 4.666 11.52 -0.955
v 4.652 11.4 -1.002
v 4.526 11.52 -0.901
v 4.537 11.52 -0.95
v 4.537 11.52 -0.078
v 4.548 11.4 -0.127
v 3.408 11.4 -0.798
v 3.413 11.52 -0.847
v 3.422 11.4 -0.947
v 3.417 11.52 -0.897
v 4.515 11.4 0.02
v 4.526 11.52 -0.029
v 4.663 11.519 -0.614
v 4.008 11.399 -0.815
v 3.917 11.4 -0.742
v 3.966 11.52 -0.742
v 3.917 11.4 -0.537
v 3.966 11.52 -0.537
v 4.067 11.4 -0.537
v 4.017 11.52 -0.537
v 4.067 11.4 -0.648
v 4.017 11.52 -0.71
v 4.652 11.519 -0.565
v 3.464 11.4 -0.929
v 3.432 11.52 -0.891
v 3.488 11.4 -0.889
v 3.44 11.52 -0.878
v 3.484 11.4 -0.843
v 3.438 11.52 -0.862
v 3.453 11.4 -0.808
v 3.428 11.52 -0.851
v 3.322 11.52 -0.306
v 3.311 11.4 -0.257
v 3.334 11.52 -0.355
v 3.345 11.4 -0.404
v 3.185 11.521 -0.379
v 3.151 11.401 -0.343
v 3.22 11.521 -0.416
v 3.253 11.401 -0.452
v 3.103 11.522 -0.512
v 3.055 11.402 -0.496
v 3.152 11.521 -0.526
v 3.199 11.401 -0.54
v 3.098 11.522 -0.667
v 3.049 11.402 -0.677
v 3.148 11.521 -0.656
v 3.195 11.401 -0.644
v 3.172 11.521 -0.804
v 3.134 11.401 -0.837
v 3.209 11.521 -0.77
v 3.244 11.401 -0.735
v 3.304 11.52 -0.886
v 3.288 11.4 -0.933
v 3.319 11.52 -0.838
v 3.332 11.4 -0.79
v 4.667 11.519 -0.082
v 4.652 11.399 -0.13
v 4.696 11.399 0.013
v 4.681 11.519 -0.034
v 4.777 11.518 -0.15
v 4.74 11.399 -0.185
v 4.849 11.398 -0.083
v 4.814 11.518 -0.116
v 4.838 11.518 -0.264
v 4.788 11.398 -0.276
v 4.935 11.397 -0.242
v 4.887 11.517 -0.253
v 4.834 11.518 -0.394
v 4.785 11.398 -0.38
v 4.928 11.397 -0.424
v 4.882 11.518 -0.408
v 4.766 11.518 -0.504
v 4.73 11.399 -0.468
v 4.832 11.398 -0.577
v 4.8 11.518 -0.541
v 4.639 11.399 -0.516
v 4.673 11.399 -0.662
v 4.052 11.4 -0.492
v 4.012 11.52 -0.522
v 4.014 11.4 -0.465
v 4 11.52 -0.513
v 3.967 11.401 -0.465
v 3.984 11.52 -0.513
v 3.929 11.401 -0.492
v 3.971 11.52 -0.522
v 3.924 11.4 -0.774
v 3.969 11.52 -0.753
v 3.945 11.4 -0.8
v 3.976 11.52 -0.762
v 3.975 11.4 -0.815
v 3.986 11.52 -0.767
v 3.997 11.52 -0.767
v 4.844 11.52 1.19
v 4.794 11.4 1.19
v 4.794 11.4 1.66
v 4.844 11.52 1.723
v 3.131 11.4 1.278
v 3.12 11.52 1.326
v 3.092 11.52 1.338
v 3.05 11.4 1.312
v 3.039 11.4 1.357
v 3.089 11.52 1.353
v 3.095 11.52 1.367
v 3.058 11.4 1.4
v 3.097 11.4 1.424
v 3.108 11.52 1.375
v 4.945 11.4 1.755
v 4.895 11.52 1.755
v 4.849 11.52 1.175
v 4.809 11.4 1.146
v 4.862 11.52 1.166
v 4.846 11.4 1.119
v 4.877 11.52 1.166
v 4.893 11.4 1.119
v 4.89 11.52 1.175
v 4.93 11.4 1.146
v 4.895 11.52 1.19
v 4.945 11.4 1.19
v 3.104 11.52 1.327
v 3.085 11.4 1.282
v 4.937 11.4 1.787
v 4.892 11.52 1.766
v 4.916 11.4 1.814
v 4.885 11.52 1.775
v 4.886 11.4 1.828
v 4.875 11.52 1.779
v 4.852 11.4 1.828
v 4.864 11.52 1.779
v 4.794 11.4 0.795
v 4.067 11.4 0.628
v 3.917 11.4 0.593
v 3.189 11.4 0.426
v 4.067 11.4 -0.648
v 4.794 11.4 1.66
v 12.844 11.52 0.325
v 12.794 11.4 0.325
v 12.794 11.4 0.795
v 12.844 11.52 0.858
v 12.067 11.4 0.628
v 12.017 11.52 0.667
v 12.067 11.4 0.328
v 11.917 11.4 0.328
v 11.966 11.52 0.328
v 11.917 11.4 0.593
v 11.966 11.52 0.656
v 11.189 11.4 0.426
v 11.14 11.52 0.465
v 11.14 11.52 -0.079
v 11.039 11.4 -0.079
v 11.089 11.52 -0.079
v 11.039 11.4 0.485
v 11.089 11.52 0.485
v 11.966 11.52 0.708
v 11.966 11.4 0.759
v 12.945 11.4 0.889
v 12.895 11.52 0.889
v 12.945 11.4 0.325
v 12.895 11.52 0.325
v 12.89 11.52 0.31
v 12.93 11.4 0.281
v 12.893 11.4 0.253
v 12.877 11.52 0.301
v 12.862 11.52 0.301
v 12.846 11.4 0.253
v 12.809 11.4 0.281
v 12.849 11.52 0.31
v 11.053 11.4 -0.123
v 11.094 11.52 -0.094
v 11.091 11.4 -0.151
v 11.106 11.52 -0.103
v 11.137 11.4 -0.151
v 11.122 11.52 -0.103
v 11.175 11.4 -0.123
v 11.135 11.52 -0.094
v 11.189 11.4 -0.079
v 11.043 11.4 0.51
v 11.09 11.52 0.494
v 11.055 11.4 0.532
v 11.094 11.52 0.501
v 11.074 11.4 0.549
v 11.101 11.52 0.507
v 11.097 11.4 0.559
v 11.108 11.52 0.51
v 12.017 11.4 0.77
v 12.017 11.52 0.719
v 11.931 11.4 0.284
v 11.971 11.52 0.313
v 11.969 11.4 0.257
v 11.984 11.52 0.304
v 12.015 11.4 0.257
v 12 11.52 0.304
v 12.053 11.4 0.284
v 12.012 11.52 0.313
v 12.017 11.52 0.328
v 12.937 11.4 0.922
v 12.892 11.52 0.901
v 12.916 11.4 0.948
v 12.885 11.52 0.909
v 12.886 11.4 0.963
v 12.875 11.52 0.914
v 12.852 11.4 0.963
v 12.864 11.52 0.914
v 11.322 11.52 -1.178
v 11.311 11.4 -1.13
v 12.515 11.4 -0.853
v 12.673 11.4 -1.535
v 12.661 11.52 -1.486
v 11.334 11.52 -1.227
v 12.65 11.52 -1.437
v 11.345 11.4 -1.276
v 12.548 11.4 -0.999
v 12.639 11.4 -1.389
v 11.435 11.4 -1.666
v 11.185 11.52 -1.251
v 11.151 11.4 -1.215
v 11.22 11.52 -1.288
v 11.253 11.4 -1.325
v 11.103 11.52 -1.383
v 11.055 11.4 -1.369
v 11.151 11.52 -1.398
v 11.199 11.4 -1.412
v 11.097 11.52 -1.539
v 11.049 11.4 -1.55
v 11.147 11.52 -1.527
v 11.195 11.4 -1.516
v 11.17 11.52 -1.676
v 11.134 11.4 -1.71
v 11.207 11.52 -1.641
v 11.244 11.4 -1.607
v 11.302 11.52 -1.758
v 11.288 11.4 -1.806
v 11.317 11.52 -1.71
v 11.332 11.4 -1.662
v 11.458 11.52 -1.763
v 11.469 11.4 -1.812
v 11.446 11.52 -1.714
v 12.832 11.4 -1.45
v 12.799 11.52 -1.413
v 12.764 11.52 -1.376
v 12.73 11.4 -1.34
v 12.928 11.4 -1.296
v 12.881 11.52 -1.281
v 12.832 11.52 -1.267
v 12.785 11.4 -1.252
v 12.935 11.4 -1.115
v 12.886 11.52 -1.126
v 12.837 11.52 -1.137
v 12.788 11.4 -1.149
v 12.849 11.4 -0.955
v 12.813 11.52 -0.989
v 12.776 11.52 -1.023
v 12.74 11.4 -1.057
v 12.696 11.4 -0.859
v 12.681 11.52 -0.906
v 12.666 11.52 -0.955
v 12.652 11.4 -1.002
v 12.526 11.52 -0.901
v 12.537 11.52 -0.95
v 12.537 11.52 -0.078
v 12.548 11.4 -0.127
v 11.408 11.4 -0.798
v 11.413 11.52 -0.847
v 11.422 11.4 -0.947
v 11.417 11.52 -0.897
v 12.515 11.4 0.02
v 12.526 11.52 -0.029
v 12.663 11.519 -0.614
v 12.008 11.399 -0.815
v 11.917 11.4 -0.742
v 11.966 11.52 -0.742
v 11.917 11.4 -0.537
v 11.966 11.52 -0.537
v 12.067 11.4 -0.537
v 12.017 11.52 -0.537
v 12.067 11.4 -0.648
v 12.017 11.52 -0.71
v 12.652 11.519 -0.565
v 11.464 11.4 -0.929
v 11.432 11.52 -0.891
v 11.488 11.4 -0.889
v 11.44 11.52 -0.878
v 11.484 11.4 -0.843
v 11.438 11.52 -0.862
v 11.453 11.4 -0.808
v 11.428 11.52 -0.851
v 11.322 11.52 -0.306
v 11.311 11.4 -0.257
v 11.334 11.52 -0.355
v 11.345 11.4 -0.404
v 11.185 11.521 -0.379
v 11.151 11.401 -0.343
v 11.22 11.521 -0.416
v 11.253 11.401 -0.452
v 11.103 11.522 -0.512
v 11.055 11.402 -0.496
v 11.152 11.521 -0.526
v 11.199 11.401 -0.54
v 11.098 11.522 -0.667
v 11.049 11.402 -0.677
v 11.148 11.521 -0.656
v 11.195 11.401 -0.644
v 11.172 11.521 -0.804
v 11.134 11.401 -0.837
v 11.209 11.521 -0.77
v 11.244 11.401 -0.735
v 11.304 11.52 -0.886
v 11.288 11.4 -0.933
v 11.319 11.52 -0.838
v 11.332 11.4 -0.79
v 12.667 11.519 -0.082
v 12.652 11.399 -0.13
v 12.696 11.399 0.013
v 12.681 11.519 -0.034
v 12.777 11.518 -0.15
v 12.74 11.399 -0.185
v 12.849 11.398 -0.083
v 12.814 11.518 -0.116
v 12.838 11.518 -0.264
v 12.788 11.398 -0.276
v 12.935 11.397 -0.242
v 12.887 11.517 -0.253
v 12.834 11.518 -0.394
v 12.785 11.398 -0.38
v 12.928 11.397 -0.424
v 12.882 11.518 -0.408
v 12.766 11.518 -0.504
v 12.73 11.399 -0.468
v 12.832 11.398 -0.577
v 12.8 11.518 -0.541
v 12.639 11.399 -0.516
v 12.673 11.399 -0.662
v 12.052 11.4 -0.492
v 12.012 11.52 -0.522
v 12.014 11.4 -0.465
v 12 11.52 -0.513
v 11.967 11.401 -0.465
v 11.984 11.52 -0.513
v 11.929 11.401 -0.492
v 11.971 11.52 -0.522
v 11.924 11.4 -0.774
v 11.969 11.52 -0.753
v 11.945 11.4 -0.8
v 11.976 11.52 -0.762
v 11.975 11.4 -0.815
v 11.986 11.52 -0.767
v 11.997 11.52 -0.767
v 12.844 11.52 1.19
v 12.794 11.4 1.19
v 12.794 11.4 1.66
v 12.844 11.52 1.723
v 11.131 11.4 1.278
v 11.12 11.52 1.326
v 11.092 11.52 1.338
v 11.05 11.4 1.312
v 11.039 11.4 1.357
v 11.089 11.52 1.353
v 11.095 11.52 1.367
v 11.058 11.4 1.4
v 11.097 11.4 1.424
v 11.108 11.52 1.375
v 12.945 11.4 1.755
v 12.895 11.52 1.755
v 12.849 11.52 1.175
v 12.809 11.4 1.146
v 12.862 11.52 1.166
v 12.846 11.4 1.119
v 12.877 11.52 1.166
v 12.893 11.4 1.119
v 12.89 11.52 1.175
v 12.93 11.4 1.146
v 12.895 11.52 1.19
v 12.945 11.4 1.19
v 11.104 11.52 1.327
v 11.085 11.4 1.282
v 12.937 11.4 1.787
v 12.892 11.52 1.766
v 12.916 11.4 1.814
v 12.885 11.52 1.775
v 12.886 11.4 1.828
v 12.875 11.52 1.779
v 12.852 11.4 1.828
v 12.864 11.52 1.779
v 12.794 11.4 0.795
v 12.067 11.4 0.628
v 11.917 11.4 0.593
v 11.189 11.4 0.426
v 12.067 11.4 -0.648
v 12.794 11.4 1.66
v -3.206 11.4 0.795
v -3.156 11.52 0.858
v -4.811 11.4 0.426
v -4.86 11.52 0.465
v -4.961 11.4 0.485
v -4.911 11.52 0.485
v -3.055 11.4 0.889
v -3.105 11.52 0.889
v -4.957 11.4 0.51
v -4.91 11.52 0.494
v -4.945 11.4 0.532
v -4.906 11.52 0.501
v -4.926 11.4 0.549
v -4.899 11.52 0.507
v -4.903 11.4 0.559
v -4.892 11.52 0.51
v -3.063 11.4 0.922
v -3.108 11.52 0.901
v -3.084 11.4 0.948
v -3.115 11.52 0.909
v -3.114 11.4 0.963
v -3.125 11.52 0.914
v -3.148 11.4 0.963
v -3.136 11.52 0.914
v -4.678 11.52 -1.178
v -4.689 11.4 -1.13
v -3.485 11.4 -0.853
v -3.327 11.4 -1.535
v -3.339 11.52 -1.486
v -4.666 11.52 -1.227
v -3.35 11.52 -1.437
v -4.655 11.4 -1.276
v -3.452 11.4 -0.999
v -3.361 11.4 -1.389
v -4.565 11.4 -1.666
v -4.815 11.52 -1.251
v -4.849 11.4 -1.215
v -4.78 11.52 -1.288
v -4.747 11.4 -1.325
v -4.897 11.52 -1.383
v -4.945 11.4 -1.369
v -4.849 11.52 -1.398
v -4.801 11.4 -1.412
v -4.903 11.52 -1.539
v -4.951 11.4 -1.55
v -4.853 11.52 -1.527
v -4.805 11.4 -1.516
v -4.83 11.52 -1.676
v -4.866 11.4 -1.71
v -4.793 11.52 -1.641
v -4.756 11.4 -1.607
v -4.698 11.52 -1.758
v -4.712 11.4 -1.806
v -4.683 11.52 -1.71
v -4.668 11.4 -1.662
v -4.542 11.52 -1.763
v -4.531 11.4 -1.812
v -4.554 11.52 -1.714
v -3.168 11.4 -1.45
v -3.201 11.52 -1.413
v -3.236 11.52 -1.376
v -3.27 11.4 -1.34
v -3.072 11.4 -1.296
v -3.119 11.52 -1.281
v -3.168 11.52 -1.267
v -3.215 11.4 -1.252
v -3.065 11.4 -1.115
v -3.114 11.52 -1.126
v -3.163 11.52 -1.137
v -3.212 11.4 -1.149
v -3.151 11.4 -0.955
v -3.187 11.52 -0.989
v -3.224 11.52 -1.023
v -3.26 11.4 -1.057
v -3.304 11.4 -0.859
v -3.319 11.52 -0.906
v -3.334 11.52 -0.955
v -3.348 11.4 -1.002
v -3.474 11.52 -0.901
v -3.463 11.52 -0.95
v -4.592 11.4 -0.798
v -4.587 11.52 -0.847
v -4.578 11.4 -0.947
v -4.583 11.52 -0.897
v -3.337 11.519 -0.614
v -3.348 11.519 -0.565
v -4.536 11.4 -0.929
v -4.568 11.52 -0.891
v -4.512 11.4 -0.889
v -4.56 11.52 -0.878
v -4.516 11.4 -0.843
v -4.562 11.52 -0.862
v -4.547 11.4 -0.808
v -4.572 11.52 -0.851
v -4.897 11.522 -0.512
v -4.945 11.402 -0.496
v -4.848 11.521 -0.526
v -4.801 11.401 -0.54
v -4.902 11.522 -0.667
v -4.951 11.402 -0.677
v -4.852 11.521 -0.656
v -4.805 11.401 -0.644
v -4.828 11.521 -0.804
v -4.866 11.401 -0.837
v -4.791 11.521 -0.77
v -4.756 11.401 -0.735
v -4.696 11.52 -0.886
v -4.712 11.4 -0.933
v -4.681 11.52 -0.838
v -4.668 11.4 -0.79
v -3.166 11.518 -0.394
v -3.215 11.398 -0.38
v -3.072 11.397 -0.424
v -3.118 11.518 -0.408
v -3.234 11.518 -0.504
v -3.27 11.399 -0.468
v -3.168 11.398 -0.577
v -3.2 11.518 -0.541
v -3.361 11.399 -0.516
v -3.327 11.399 -0.662
v -3.156 11.52 1.19
v -3.206 11.4 1.19
v -3.206 11.4 1.66
v -3.156 11.52 1.723
v -4.869 11.4 1.278
v -4.88 11.52 1.326
v -4.908 11.52 1.338
v -4.95 11.4 1.312
v -4.961 11.4 1.357
v -4.911 11.52 1.353
v -4.905 11.52 1.367
v -4.942 11.4 1.4
v -4.903 11.4 1.424
v -4.892 11.52 1.375
v -3.055 11.4 1.755
v -3.105 11.52 1.755
v -3.151 11.52 1.175
v -3.191 11.4 1.146
v -3.138 11.52 1.166
v -3.154 11.4 1.119
v -3.123 11.52 1.166
v -3.107 11.4 1.119
v -3.11 11.52 1.175
v -3.07 11.4 1.146
v -3.105 11.52 1.19
v -3.055 11.4 1.19
v -4.896 11.52 1.327
v -4.915 11.4 1.282
v -3.063 11.4 1.787
v -3.108 11.52 1.766
v -3.084 11.4 1.814
v -3.115 11.52 1.775
v -3.114 11.4 1.828
v -3.125 11.52 1.779
v -3.148 11.4 1.828
v -3.136 11.52 1.779
v -4.812 11.52 0.529
v -4.781 11.52 0.484
v -4.751 11.4 0.44
v -4.842 11.4 0.573
v -4.961 11.4 0.336
v -4.86 11.52 0.336
v -4.911 11.52 0.336
v -4.811 11.4 0.336
v -3.206 11.4 0.506
v -3.105 11.52 0.506
v -3.055 11.4 0.506
v -3.156 11.52 0.506
v -3.492 11.4 0.884
v -3.492 11.4 0.729
v -3.492 11.52 0.78
v -3.492 11.52 0.832
v -4.5 11.4 0
v -4.433 11.4 0.25
v -4.25 11.4 0.433
v -4 11.4 0.5
v -3.75 11.4 0.433
v -3.567 11.4 0.25
v -3.5 11.4 0
v -3.567 11.4 -0.25
v -3.75 11.4 -0.433
v -4 11.4 -0.5
v -4.25 11.4 -0.433
v -4.433 11.4 -0.25
v -4.39 11.44 0
v -4.338 11.44 0.195
v -4.195 11.44 0.338
v -4 11.44 0.39
v -3.805 11.44 0.338
v -3.662 11.44 0.195
v -3.61 11.44 0
v -3.662 11.44 -0.195
v -3.805 11.44 -0.338
v -4 11.44 -0.39
v -4.195 11.44 -0.338
v -4.338 11.44 -0.195
v -4.256 11.429 0
v -4.221 11.429 0.128
v -4.128 11.429 0.221
v -4 11.429 0.256
v -3.872 11.429 0.221
v -3.779 11.429 0.128
v -3.744 11.429 0
v -3.779 11.429 -0.128
v -3.872 11.429 -0.221
v -4 11.429 -0.256
v -4.128 11.429 -0.221
v -4.221 11.429 -0.128
v -4 11.416 0
v -3.206 11.4 0.795
v -4.811 11.4 0.426
v -4.897 11.522 -0.512
v -4.945 11.402 -0.496
v -4.848 11.521 -0.526
v -4.801 11.401 -0.54
v -3.166 11.518 -0.394
v -3.215 11.398 -0.38
v -3.072 11.397 -0.424
v -3.118 11.518 -0.408
v -3.327 11.399 -0.662
v -3.337 11.519 -0.614
v -3.361 11.399 -0.516
v -3.348 11.519 -0.565
v -3.206 11.4 1.66
v -4.812 11.52 0.529
v -4.842 11.4 0.573
v -4.781 11.52 0.484
v -4.751 11.4 0.44
v -4.961 11.4 0.336
v -4.911 11.52 0.336
v -4.86 11.52 0.336
v -4.811 11.4 0.336
v -3.156 11.52 0.506
v -3.105 11.52 0.506
v -3.206 11.4 0.506
v -3.055 11.4 0.506
v -3.492 11.4 0.729
v -3.492 11.52 0.78
v -3.492 11.52 0.832
v -3.492 11.4 0.884
usemtl MB_23
s off
f 254 271 255
f 271 257 255
f 272 156 259
f 156 256 259
f 275 299 256
f 299 259 256
f 17 276 260
f 276 261 260
f 264 15 265
f 15 6 265
f 270 269 31
f 269 11 31
f 269 268 11
f 268 12 11
f 268 267 12
f 267 13 12
f 267 266 13
f 266 154 13
f 9 10 155
f 8 9 155
f 7 8 155
f 153 7 155
f 3 262 158
f 262 263 158
f 274 258 162
f 258 157 162
f 28 29 5
f 29 14 5
f 273 274 169
f 274 162 169
f 280 298 17
f 298 276 17
f 25 41 275
f 41 299 275
f 1 2 21
f 2 16 21
f 159 4 166
f 4 22 166
f 42 43 99
f 43 97 99
f 166 22 170
f 22 26 170
f 21 16 285
f 16 27 285
f 164 40 228
f 40 294 228
f 290 291 38
f 291 35 38
f 270 31 287
f 31 30 287
f 287 30 286
f 30 24 286
f 286 24 288
f 24 23 288
f 288 23 289
f 23 161 289
f 32 155 10
f 33 155 32
f 34 155 33
f 167 155 34
f 28 36 29
f 36 37 29
f 273 169 295
f 169 168 295
f 280 39 298
f 39 293 298
f 25 284 41
f 284 281 41
f 164 170 40
f 170 26 40
f 42 285 43
f 285 27 43
f 18 278 242
f 279 18 242
f 283 282 242
f 282 279 242
f 296 292 284
f 292 281 284
f 93 98 39
f 98 293 39
f 297 295 229
f 295 168 229
f 96 95 45
f 95 47 45
f 300 46 301
f 46 44 301
f 277 19 50
f 19 49 50
f 20 150 48
f 150 165 48
f 19 20 49
f 20 48 49
f 68 277 94
f 277 50 94
f 302 303 319
f 303 305 319
f 320 307 233
f 307 304 233
f 323 304 342
f 304 307 342
f 67 308 324
f 308 309 324
f 312 313 65
f 313 56 65
f 318 82 317
f 82 61 317
f 317 61 316
f 61 62 316
f 316 62 315
f 62 63 315
f 315 63 314
f 63 231 314
f 59 232 60
f 58 232 59
f 57 232 58
f 230 232 57
f 53 235 310
f 235 311 310
f 322 239 306
f 239 234 306
f 79 55 80
f 55 64 80
f 321 247 322
f 247 239 322
f 327 67 341
f 67 324 341
f 76 323 92
f 323 342 92
f 51 72 52
f 72 66 52
f 236 244 54
f 244 73 54
f 100 99 101
f 99 97 101
f 244 248 73
f 248 77 73
f 72 332 66
f 332 78 66
f 241 228 91
f 228 294 91
f 337 89 338
f 89 86 338
f 318 334 82
f 334 81 82
f 334 333 81
f 333 75 81
f 333 335 75
f 335 74 75
f 335 336 74
f 336 238 74
f 83 60 232
f 84 83 232
f 85 84 232
f 245 85 232
f 79 80 87
f 80 88 87
f 321 340 247
f 340 246 247
f 327 341 90
f 341 339 90
f 76 92 331
f 92 328 331
f 241 91 248
f 91 77 248
f 100 101 332
f 101 78 332
f 69 242 278
f 326 242 69
f 330 242 329
f 329 242 326
f 296 331 292
f 331 328 292
f 93 90 98
f 90 339 98
f 297 229 340
f 229 246 340
f 96 103 95
f 103 105 95
f 343 344 104
f 344 102 104
f 325 108 70
f 108 107 70
f 71 106 218
f 106 243 218
f 70 107 71
f 107 106 71
f 68 94 325
f 94 108 325
f 254 345 271
f 345 347 271
f 272 349 156
f 349 346 156
f 361 346 383
f 346 349 383
f 125 350 362
f 350 351 362
f 353 354 123
f 354 114 123
f 358 139 357
f 139 119 357
f 357 119 356
f 119 120 356
f 356 120 355
f 120 121 355
f 355 121 266
f 121 154 266
f 117 155 118
f 116 155 117
f 115 155 116
f 153 155 115
f 111 158 352
f 158 263 352
f 360 162 348
f 162 157 348
f 136 113 137
f 113 122 137
f 359 169 360
f 169 162 360
f 366 125 382
f 125 362 382
f 133 361 149
f 361 383 149
f 109 129 110
f 129 124 110
f 159 166 112
f 166 130 112
f 151 225 152
f 225 223 152
f 166 170 130
f 170 134 130
f 129 370 124
f 370 135 124
f 164 228 148
f 228 378 148
f 374 146 375
f 146 143 375
f 358 372 139
f 372 138 139
f 372 371 138
f 371 132 138
f 371 373 132
f 373 131 132
f 373 289 131
f 289 161 131
f 140 118 155
f 141 140 155
f 142 141 155
f 167 142 155
f 136 137 144
f 137 145 144
f 359 379 169
f 379 168 169
f 366 382 147
f 382 377 147
f 133 149 369
f 149 367 369
f 164 148 170
f 148 134 170
f 151 152 370
f 152 135 370
f 126 242 364
f 365 242 126
f 283 242 368
f 368 242 365
f 380 369 376
f 369 367 376
f 219 147 224
f 147 377 224
f 381 229 379
f 229 168 379
f 222 163 221
f 163 172 221
f 384 385 171
f 385 160 171
f 363 175 127
f 175 174 127
f 128 173 150
f 173 165 150
f 127 174 128
f 174 173 128
f 193 220 363
f 220 175 363
f 302 319 386
f 319 388 386
f 320 233 390
f 233 387 390
f 402 419 387
f 419 390 387
f 192 403 391
f 403 392 391
f 394 190 395
f 190 181 395
f 399 398 207
f 398 186 207
f 398 397 186
f 397 187 186
f 397 396 187
f 396 188 187
f 396 314 188
f 314 231 188
f 184 185 232
f 183 184 232
f 182 183 232
f 230 182 232
f 178 393 235
f 393 311 235
f 401 389 239
f 389 234 239
f 204 205 180
f 205 189 180
f 400 401 247
f 401 239 247
f 406 418 192
f 418 403 192
f 201 217 402
f 217 419 402
f 176 177 197
f 177 191 197
f 236 179 244
f 179 198 244
f 226 227 225
f 227 223 225
f 244 198 248
f 198 202 248
f 197 191 410
f 191 203 410
f 241 216 228
f 216 378 228
f 414 415 214
f 415 211 214
f 399 207 412
f 207 206 412
f 412 206 411
f 206 200 411
f 411 200 413
f 200 199 413
f 413 199 336
f 199 238 336
f 208 232 185
f 209 232 208
f 210 232 209
f 245 232 210
f 204 212 205
f 212 213 205
f 400 247 417
f 247 246 417
f 406 215 418
f 215 416 418
f 201 409 217
f 409 407 217
f 241 248 216
f 248 202 216
f 226 410 227
f 410 203 227
f 194 364 242
f 405 194 242
f 330 408 242
f 408 405 242
f 380 376 409
f 376 407 409
f 219 224 215
f 224 416 215
f 381 417 229
f 417 246 229
f 222 221 240
f 221 250 240
f 420 249 421
f 249 237 421
f 404 195 253
f 195 252 253
f 196 218 251
f 218 243 251
f 195 196 252
f 196 251 252
f 193 404 220
f 404 253 220
f 429 472 431
f 472 471 431
f 458 462 489
f 462 486 489
f 477 456 476
f 456 453 476
f 473 476 444
f 476 446 444
f 461 459 465
f 459 478 465
f 468 475 423
f 475 472 423
f 476 453 446
f 453 450 446
f 435 470 438
f 470 441 438
f 465 478 468
f 478 475 468
f 478 459 477
f 459 456 477
f 423 472 425
f 472 429 425
f 431 471 435
f 471 470 435
f 470 473 441
f 473 444 441
f 426 427 428
f 427 430 428
f 427 425 430
f 425 429 430
f 432 433 434
f 433 436 434
f 433 431 436
f 431 435 436
f 447 448 449
f 448 451 449
f 448 446 451
f 446 450 451
f 434 436 437
f 436 439 437
f 436 435 439
f 435 438 439
f 437 439 440
f 439 442 440
f 439 438 442
f 438 441 442
f 449 451 452
f 451 454 452
f 451 450 454
f 450 453 454
f 452 454 455
f 454 457 455
f 454 453 457
f 453 456 457
f 462 463 464
f 463 466 464
f 463 461 466
f 461 465 466
f 440 442 443
f 442 445 443
f 442 441 445
f 441 444 445
f 443 445 447
f 445 448 447
f 445 444 448
f 444 446 448
f 455 457 458
f 457 460 458
f 457 456 460
f 456 459 460
f 458 460 462
f 460 463 462
f 460 459 463
f 459 461 463
f 464 466 467
f 466 469 467
f 466 465 469
f 465 468 469
f 428 430 432
f 430 433 432
f 430 429 433
f 429 431 433
f 467 469 422
f 469 424 422
f 469 468 424
f 468 423 424
f 422 424 426
f 424 427 426
f 424 423 427
f 423 425 427
f 471 474 470
f 474 473 470
f 474 477 473
f 477 476 473
f 472 475 471
f 475 474 471
f 475 478 474
f 478 477 474
f 483 479 484
f 479 481 484
f 484 481 482
f 481 480 482
f 486 483 487
f 483 484 487
f 487 484 485
f 484 482 485
f 489 486 490
f 486 487 490
f 490 487 488
f 487 485 488
f 492 489 493
f 489 490 493
f 493 490 491
f 490 488 491
f 495 492 496
f 492 493 496
f 496 493 494
f 493 491 494
f 498 495 499
f 495 496 499
f 499 496 497
f 496 494 497
f 501 498 502
f 498 499 502
f 502 499 500
f 499 497 500
f 504 501 505
f 501 502 505
f 505 502 503
f 502 500 503
f 507 504 508
f 504 505 508
f 508 505 506
f 505 503 506
f 510 507 511
f 507 508 511
f 511 508 509
f 508 506 509
f 513 510 514
f 510 511 514
f 514 511 512
f 511 509 512
f 516 513 517
f 513 514 517
f 517 514 515
f 514 512 515
f 519 516 520
f 516 517 520
f 520 517 518
f 517 515 518
f 522 519 523
f 519 520 523
f 523 520 521
f 520 518 521
f 525 522 526
f 522 523 526
f 526 523 524
f 523 521 524
f 479 525 481
f 525 526 481
f 481 526 480
f 526 524 480
f 437 440 510
f 440 507 510
f 462 464 486
f 464 483 486
f 440 443 507
f 443 504 507
f 479 467 525
f 467 422 525
f 464 467 483
f 467 479 483
f 443 447 504
f 447 501 504
f 525 422 522
f 422 426 522
f 447 449 501
f 449 498 501
f 426 428 522
f 428 519 522
f 449 452 498
f 452 495 498
f 428 432 519
f 432 516 519
f 452 455 495
f 455 492 495
f 432 434 516
f 434 513 516
f 455 458 492
f 458 489 492
f 434 437 513
f 437 510 513
f 534 577 536
f 577 576 536
f 563 567 594
f 567 591 594
f 582 561 581
f 561 558 581
f 578 581 549
f 581 551 549
f 566 564 570
f 564 583 570
f 573 580 528
f 580 577 528
f 581 558 551
f 558 555 551
f 540 575 543
f 575 546 543
f 570 583 573
f 583 580 573
f 583 564 582
f 564 561 582
f 528 577 530
f 577 534 530
f 536 576 540
f 576 575 540
f 575 578 546
f 578 549 546
f 531 532 533
f 532 535 533
f 532 530 535
f 530 534 535
f 537 538 539
f 538 541 539
f 538 536 541
f 536 540 541
f 552 553 554
f 553 556 554
f 553 551 556
f 551 555 556
f 539 541 542
f 541 544 542
f 541 540 544
f 540 543 544
f 542 544 545
f 544 547 545
f 544 543 547
f 543 546 547
f 554 556 557
f 556 559 557
f 556 555 559
f 555 558 559
f 557 559 560
f 559 562 560
f 559 558 562
f 558 561 562
f 567 568 569
f 568 571 569
f 568 566 571
f 566 570 571
f 545 547 548
f 547 550 548
f 547 546 550
f 546 549 550
f 548 550 552
f 550 553 552
f 550 549 553
f 549 551 553
f 560 562 563
f 562 565 563
f 562 561 565
f 561 564 565
f 563 565 567
f 565 568 567
f 565 564 568
f 564 566 568
f 569 571 572
f 571 574 572
f 571 570 574
f 570 573 574
f 533 535 537
f 535 538 537
f 535 534 538
f 534 536 538
f 572 574 527
f 574 529 527
f 574 573 529
f 573 528 529
f 527 529 531
f 529 532 531
f 529 528 532
f 528 530 532
f 576 579 575
f 579 578 575
f 579 582 578
f 582 581 578
f 577 580 576
f 580 579 576
f 580 583 579
f 583 582 579
f 588 584 589
f 584 586 589
f 589 586 587
f 586 585 587
f 591 588 592
f 588 589 592
f 592 589 590
f 589 587 590
f 594 591 595
f 591 592 595
f 595 592 593
f 592 590 593
f 597 594 598
f 594 595 598
f 598 595 596
f 595 593 596
f 600 597 601
f 597 598 601
f 601 598 599
f 598 596 599
f 603 600 604
f 600 601 604
f 604 601 602
f 601 599 602
f 606 603 607
f 603 604 607
f 607 604 605
f 604 602 605
f 609 606 610
f 606 607 610
f 610 607 608
f 607 605 608
f 612 609 613
f 609 610 613
f 613 610 611
f 610 608 611
f 615 612 616
f 612 613 616
f 616 613 614
f 613 611 614
f 618 615 619
f 615 616 619
f 619 616 617
f 616 614 617
f 621 618 622
f 618 619 622
f 622 619 620
f 619 617 620
f 624 621 625
f 621 622 625
f 625 622 623
f 622 620 623
f 627 624 628
f 624 625 628
f 628 625 626
f 625 623 626
f 630 627 631
f 627 628 631
f 631 628 629
f 628 626 629
f 584 630 586
f 630 631 586
f 586 631 585
f 631 629 585
f 542 545 615
f 545 612 615
f 567 569 591
f 569 588 591
f 545 548 612
f 548 609 612
f 584 572 630
f 572 527 630
f 569 572 588
f 572 584 588
f 548 552 609
f 552 606 609
f 630 527 627
f 527 531 627
f 552 554 606
f 554 603 606
f 531 533 627
f 533 624 627
f 554 557 603
f 557 600 603
f 533 537 624
f 537 621 624
f 557 560 600
f 560 597 600
f 537 539 621
f 539 618 621
f 560 563 597
f 563 594 597
f 539 542 618
f 542 615 618
f 639 682 641
f 682 681 641
f 668 672 699
f 672 696 699
f 687 666 686
f 666 663 686
f 683 686 654
f 686 656 654
f 671 669 675
f 669 688 675
f 678 685 633
f 685 682 633
f 686 663 656
f 663 660 656
f 645 680 648
f 680 651 648
f 675 688 678
f 688 685 678
f 688 669 687
f 669 666 687
f 633 682 635
f 682 639 635
f 641 681 645
f 681 680 645
f 680 683 651
f 683 654 651
f 636 637 638
f 637 640 638
f 637 635 640
f 635 639 640
f 642 643 644
f 643 646 644
f 643 641 646
f 641 645 646
f 657 658 659
f 658 661 659
f 658 656 661
f 656 660 661
f 644 646 647
f 646 649 647
f 646 645 649
f 645 648 649
f 647 649 650
f 649 652 650
f 649 648 652
f 648 651 652
f 659 661 662
f 661 664 662
f 661 660 664
f 660 663 664
f 662 664 665
f 664 667 665
f 664 663 667
f 663 666 667
f 672 673 674
f 673 676 674
f 673 671 676
f 671 675 676
f 650 652 653
f 652 655 653
f 652 651 655
f 651 654 655
f 653 655 657
f 655 658 657
f 655 654 658
f 654 656 658
f 665 667 668
f 667 670 668
f 667 666 670
f 666 669 670
f 668 670 672
f 670 673 672
f 670 669 673
f 669 671 673
f 674 676 677
f 676 679 677
f 676 675 679
f 675 678 679
f 638 640 642
f 640 643 642
f 640 639 643
f 639 641 643
f 677 679 632
f 679 634 632
f 679 678 634
f 678 633 634
f 632 634 636
f 634 637 636
f 634 633 637
f 633 635 637
f 681 684 680
f 684 683 680
f 684 687 683
f 687 686 683
f 682 685 681
f 685 684 681
f 685 688 684
f 688 687 684
f 693 689 694
f 689 691 694
f 694 691 692
f 691 690 692
f 696 693 697
f 693 694 697
f 697 694 695
f 694 692 695
f 699 696 700
f 696 697 700
f 700 697 698
f 697 695 698
f 702 699 703
f 699 700 703
f 703 700 701
f 700 698 701
f 705 702 706
f 702 703 706
f 706 703 704
f 703 701 704
f 708 705 709
f 705 706 709
f 709 706 707
f 706 704 707
f 711 708 712
f 708 709 712
f 712 709 710
f 709 707 710
f 714 711 715
f 711 712 715
f 715 712 713
f 712 710 713
f 717 714 718
f 714 715 718
f 718 715 716
f 715 713 716
f 720 717 721
f 717 718 721
f 721 718 719
f 718 716 719
f 723 720 724
f 720 721 724
f 724 721 722
f 721 719 722
f 726 723 727
f 723 724 727
f 727 724 725
f 724 722 725
f 729 726 730
f 726 727 730
f 730 727 728
f 727 725 728
f 732 729 733
f 729 730 733
f 733 730 731
f 730 728 731
f 735 732 736
f 732 733 736
f 736 733 734
f 733 731 734
f 689 735 691
f 735 736 691
f 691 736 690
f 736 734 690
f 647 650 720
f 650 717 720
f 672 674 696
f 674 693 696
f 650 653 717
f 653 714 717
f 689 677 735
f 677 632 735
f 674 677 693
f 677 689 693
f 653 657 714
f 657 711 714
f 735 632 732
f 632 636 732
f 657 659 711
f 659 708 711
f 636 638 732
f 638 729 732
f 659 662 708
f 662 705 708
f 638 642 729
f 642 726 729
f 662 665 705
f 665 702 705
f 642 644 726
f 644 723 726
f 665 668 702
f 668 699 702
f 644 647 723
f 647 720 723
f 744 787 746
f 787 786 746
f 773 777 804
f 777 801 804
f 792 771 791
f 771 768 791
f 788 791 759
f 791 761 759
f 776 774 780
f 774 793 780
f 783 790 738
f 790 787 738
f 791 768 761
f 768 765 761
f 750 785 753
f 785 756 753
f 780 793 783
f 793 790 783
f 793 774 792
f 774 771 792
f 738 787 740
f 787 744 740
f 746 786 750
f 786 785 750
f 785 788 756
f 788 759 756
f 741 742 743
f 742 745 743
f 742 740 745
f 740 744 745
f 747 748 749
f 748 751 749
f 748 746 751
f 746 750 751
f 762 763 764
f 763 766 764
f 763 761 766
f 761 765 766
f 749 751 752
f 751 754 752
f 751 750 754
f 750 753 754
f 752 754 755
f 754 757 755
f 754 753 757
f 753 756 757
f 764 766 767
f 766 769 767
f 766 765 769
f 765 768 769
f 767 769 770
f 769 772 770
f 769 768 772
f 768 771 772
f 777 778 779
f 778 781 779
f 778 776 781
f 776 780 781
f 755 757 758
f 757 760 758
f 757 756 760
f 756 759 760
f 758 760 762
f 760 763 762
f 760 759 763
f 759 761 763
f 770 772 773
f 772 775 773
f 772 771 775
f 771 774 775
f 773 775 777
f 775 778 777
f 775 774 778
f 774 776 778
f 779 781 782
f 781 784 782
f 781 780 784
f 780 783 784
f 743 745 747
f 745 748 747
f 745 744 748
f 744 746 748
f 782 784 737
f 784 739 737
f 784 783 739
f 783 738 739
f 737 739 741
f 739 742 741
f 739 738 742
f 738 740 742
f 786 789 785
f 789 788 785
f 789 792 788
f 792 791 788
f 787 790 786
f 790 789 786
f 790 793 789
f 793 792 789
f 798 794 799
f 794 796 799
f 799 796 797
f 796 795 797
f 801 798 802
f 798 799 802
f 802 799 800
f 799 797 800
f 804 801 805
f 801 802 805
f 805 802 803
f 802 800 803
f 807 804 808
f 804 805 808
f 808 805 806
f 805 803 806
f 810 807 811
f 807 808 811
f 811 808 809
f 808 806 809
f 813 810 814
f 810 811 814
f 814 811 812
f 811 809 812
f 816 813 817
f 813 814 817
f 817 814 815
f 814 812 815
f 819 816 820
f 816 817 820
f 820 817 818
f 817 815 818
f 822 819 823
f 819 820 823
f 823 820 821
f 820 818 821
f 825 822 826
f 822 823 826
f 826 823 824
f 823 821 824
f 828 825 829
f 825 826 829
f 829 826 827
f 826 824 827
f 831 828 832
f 828 829 832
f 832 829 830
f 829 827 830
f 834 831 835
f 831 832 835
f 835 832 833
f 832 830 833
f 837 834 838
f 834 835 838
f 838 835 836
f 835 833 836
f 840 837 841
f 837 838 841
f 841 838 839
f 838 836 839
f 794 840 796
f 840 841 796
f 796 841 795
f 841 839 795
f 752 755 825
f 755 822 825
f 777 779 801
f 779 798 801
f 755 758 822
f 758 819 822
f 794 782 840
f 782 737 840
f 779 782 798
f 782 794 798
f 758 762 819
f 762 816 819
f 840 737 837
f 737 741 837
f 762 764 816
f 764 813 816
f 741 743 837
f 743 834 837
f 764 767 813
f 767 810 813
f 743 747 834
f 747 831 834
f 767 770 810
f 770 807 810
f 747 749 831
f 749 828 831
f 770 773 807
f 773 804 807
f 749 752 828
f 752 825 828
f 842 843 845
f 843 1090 845
f 845 844 847
f 844 1091 847
f 847 846 901
f 846 848 901
f 850 849 852
f 849 1092 852
f 852 851 854
f 851 1093 854
f 854 853 855
f 853 882 855
f 857 856 859
f 856 858 859
f 890 889 860
f 889 861 860
f 863 862 865
f 862 864 865
f 867 866 864
f 866 865 864
f 868 869 867
f 869 866 867
f 843 842 872
f 842 873 872
f 870 873 869
f 873 866 869
f 871 870 868
f 870 869 868
f 845 863 842
f 863 865 842
f 872 873 871
f 873 870 871
f 866 873 865
f 873 842 865
f 856 857 874
f 857 875 874
f 874 875 876
f 875 877 876
f 876 877 878
f 877 879 878
f 878 879 880
f 879 881 880
f 880 881 882
f 881 855 882
f 857 855 875
f 855 881 875
f 875 881 877
f 881 879 877
f 859 858 884
f 858 883 884
f 884 883 886
f 883 885 886
f 886 885 888
f 885 887 888
f 888 887 890
f 887 889 890
f 854 859 886
f 859 884 886
f 854 886 890
f 886 888 890
f 901 850 847
f 850 852 847
f 852 860 847
f 860 892 847
f 860 861 892
f 861 891 892
f 892 891 909
f 891 908 909
f 854 890 852
f 890 860 852
f 855 857 854
f 857 859 854
f 849 850 893
f 850 894 893
f 893 894 895
f 894 896 895
f 895 896 897
f 896 898 897
f 897 898 899
f 898 900 899
f 899 900 848
f 900 901 848
f 850 901 894
f 901 900 894
f 894 900 896
f 900 898 896
f 847 892 845
f 892 909 845
f 862 863 902
f 863 903 902
f 902 903 904
f 903 905 904
f 904 905 906
f 905 907 906
f 906 907 908
f 907 909 908
f 845 905 863
f 905 903 863
f 845 909 905
f 909 907 905
f 910 911 964
f 911 912 964
f 914 913 941
f 913 942 941
f 915 910 965
f 910 964 965
f 916 914 943
f 914 941 943
f 917 915 918
f 915 965 918
f 919 916 920
f 916 943 920
f 915 917 923
f 917 924 923
f 910 915 921
f 915 923 921
f 911 910 922
f 910 921 922
f 923 924 927
f 924 928 927
f 921 923 925
f 923 927 925
f 922 921 926
f 921 925 926
f 927 928 931
f 928 932 931
f 925 927 929
f 927 931 929
f 926 925 930
f 925 929 930
f 931 932 935
f 932 936 935
f 929 931 933
f 931 935 933
f 930 929 934
f 929 933 934
f 935 936 939
f 936 940 939
f 933 935 937
f 935 939 937
f 934 933 938
f 933 937 938
f 939 940 943
f 940 920 943
f 937 939 941
f 939 943 941
f 938 937 942
f 937 941 942
f 916 919 946
f 919 947 946
f 914 916 945
f 916 946 945
f 913 914 944
f 914 945 944
f 946 947 950
f 947 951 950
f 945 946 949
f 946 950 949
f 944 945 948
f 945 949 948
f 950 951 954
f 951 955 954
f 949 950 953
f 950 954 953
f 948 949 952
f 949 953 952
f 954 955 958
f 955 959 958
f 953 954 957
f 954 958 957
f 952 953 956
f 953 957 956
f 958 959 962
f 959 963 962
f 957 958 961
f 958 962 961
f 956 957 960
f 957 961 960
f 962 963 965
f 963 918 965
f 961 962 964
f 962 965 964
f 960 961 912
f 961 964 912
f 966 967 995
f 967 996 995
f 993 994 973
f 994 972 973
f 974 1038 1053
f 1038 975 1053
f 977 976 979
f 976 978 979
f 981 980 983
f 980 1094 983
f 983 982 984
f 982 1037 984
f 973 966 993
f 966 995 993
f 970 971 985
f 971 986 985
f 985 986 987
f 986 988 987
f 987 988 989
f 988 990 989
f 989 990 991
f 990 992 991
f 991 992 968
f 992 969 968
f 971 969 986
f 969 992 986
f 986 992 988
f 992 990 988
f 996 1000 995
f 1000 999 995
f 995 999 993
f 999 997 993
f 993 997 994
f 997 998 994
f 1000 1004 999
f 1004 1003 999
f 999 1003 997
f 1003 1001 997
f 997 1001 998
f 1001 1002 998
f 1004 1008 1003
f 1008 1007 1003
f 1003 1007 1001
f 1007 1005 1001
f 1001 1005 1002
f 1005 1006 1002
f 1008 1012 1007
f 1012 1011 1007
f 1007 1011 1005
f 1011 1009 1005
f 1005 1009 1006
f 1009 1010 1006
f 1012 1016 1011
f 1016 1015 1011
f 1011 1015 1009
f 1015 1013 1009
f 1009 1013 1010
f 1013 1014 1010
f 1014 1013 970
f 1013 971 970
f 1013 1015 971
f 1015 969 971
f 1015 1016 969
f 1016 968 969
f 966 973 1017
f 973 1020 1017
f 973 972 1020
f 972 1019 1020
f 967 966 1018
f 966 1017 1018
f 1017 1020 1021
f 1020 1024 1021
f 1020 1019 1024
f 1019 1023 1024
f 1018 1017 1022
f 1017 1021 1022
f 1021 1024 1025
f 1024 1028 1025
f 1024 1023 1028
f 1023 1027 1028
f 1022 1021 1026
f 1021 1025 1026
f 1025 1028 1029
f 1028 1032 1029
f 1028 1027 1032
f 1027 1031 1032
f 1026 1025 1030
f 1025 1029 1030
f 1029 1032 1033
f 1032 1036 1033
f 1032 1031 1036
f 1031 1035 1036
f 1030 1029 1034
f 1029 1033 1034
f 1033 1036 984
f 1036 974 984
f 1036 1035 974
f 1035 1038 974
f 1034 1033 1037
f 1033 984 1037
f 980 981 1039
f 981 1040 1039
f 1039 1040 1041
f 1040 1042 1041
f 1041 1042 1043
f 1042 1044 1043
f 1043 1044 1045
f 1044 1046 1045
f 1045 1046 978
f 1046 979 978
f 981 979 1040
f 979 1046 1040
f 1040 1046 1042
f 1046 1044 1042
f 976 977 1047
f 977 1048 1047
f 1047 1048 1049
f 1048 1050 1049
f 1049 1050 1051
f 1050 1052 1051
f 1051 1052 975
f 1052 1053 975
f 1052 1050 1053
f 1050 983 1053
f 983 1050 977
f 1050 1048 977
f 977 979 983
f 979 981 983
f 984 974 983
f 974 1053 983
f 1065 1064 1062
f 1064 1063 1062
f 1066 1067 1065
f 1067 1064 1065
f 1081 1080 1058
f 1080 1059 1058
f 1054 1055 1057
f 1055 1095 1057
f 1057 1056 1059
f 1056 1058 1059
f 1062 1063 1061
f 1063 1060 1061
f 1067 1066 1089
f 1066 1088 1089
f 1069 1068 1078
f 1068 1079 1078
f 1067 1059 1064
f 1059 1080 1064
f 1061 1060 1081
f 1060 1080 1081
f 1059 1067 1057
f 1067 1089 1057
f 1055 1054 1071
f 1054 1070 1071
f 1071 1070 1073
f 1070 1072 1073
f 1073 1072 1075
f 1072 1074 1075
f 1075 1074 1077
f 1074 1076 1077
f 1077 1076 1079
f 1076 1078 1079
f 1054 1078 1070
f 1078 1076 1070
f 1070 1076 1072
f 1076 1074 1072
f 1060 1063 1080
f 1063 1064 1080
f 1068 1069 1082
f 1069 1083 1082
f 1082 1083 1084
f 1083 1085 1084
f 1084 1085 1086
f 1085 1087 1086
f 1086 1087 1088
f 1087 1089 1088
f 1057 1089 1085
f 1089 1087 1085
f 1057 1085 1069
f 1085 1083 1069
f 1057 1069 1054
f 1069 1078 1054
f 1096 1097 1099
f 1097 1344 1099
f 1099 1098 1101
f 1098 1345 1101
f 1101 1100 1155
f 1100 1102 1155
f 1104 1103 1106
f 1103 1346 1106
f 1106 1105 1108
f 1105 1347 1108
f 1108 1107 1109
f 1107 1136 1109
f 1111 1110 1113
f 1110 1112 1113
f 1144 1143 1114
f 1143 1115 1114
f 1117 1116 1119
f 1116 1118 1119
f 1121 1120 1118
f 1120 1119 1118
f 1122 1123 1121
f 1123 1120 1121
f 1097 1096 1126
f 1096 1127 1126
f 1124 1127 1123
f 1127 1120 1123
f 1125 1124 1122
f 1124 1123 1122
f 1099 1117 1096
f 1117 1119 1096
f 1126 1127 1125
f 1127 1124 1125
f 1120 1127 1119
f 1127 1096 1119
f 1110 1111 1128
f 1111 1129 1128
f 1128 1129 1130
f 1129 1131 1130
f 1130 1131 1132
f 1131 1133 1132
f 1132 1133 1134
f 1133 1135 1134
f 1134 1135 1136
f 1135 1109 1136
f 1111 1109 1129
f 1109 1135 1129
f 1129 1135 1131
f 1135 1133 1131
f 1113 1112 1138
f 1112 1137 1138
f 1138 1137 1140
f 1137 1139 1140
f 1140 1139 1142
f 1139 1141 1142
f 1142 1141 1144
f 1141 1143 1144
f 1108 1113 1140
f 1113 1138 1140
f 1108 1140 1144
f 1140 1142 1144
f 1155 1104 1101
f 1104 1106 1101
f 1106 1114 1101
f 1114 1146 1101
f 1114 1115 1146
f 1115 1145 1146
f 1146 1145 1163
f 1145 1162 1163
f 1108 1144 1106
f 1144 1114 1106
f 1109 1111 1108
f 1111 1113 1108
f 1103 1104 1147
f 1104 1148 1147
f 1147 1148 1149
f 1148 1150 1149
f 1149 1150 1151
f 1150 1152 1151
f 1151 1152 1153
f 1152 1154 1153
f 1153 1154 1102
f 1154 1155 1102
f 1104 1155 1148
f 1155 1154 1148
f 1148 1154 1150
f 1154 1152 1150
f 1101 1146 1099
f 1146 1163 1099
f 1116 1117 1156
f 1117 1157 1156
f 1156 1157 1158
f 1157 1159 1158
f 1158 1159 1160
f 1159 1161 1160
f 1160 1161 1162
f 1161 1163 1162
f 1099 1159 1117
f 1159 1157 1117
f 1099 1163 1159
f 1163 1161 1159
f 1164 1165 1218
f 1165 1166 1218
f 1168 1167 1195
f 1167 1196 1195
f 1169 1164 1219
f 1164 1218 1219
f 1170 1168 1197
f 1168 1195 1197
f 1171 1169 1172
f 1169 1219 1172
f 1173 1170 1174
f 1170 1197 1174
f 1169 1171 1177
f 1171 1178 1177
f 1164 1169 1175
f 1169 1177 1175
f 1165 1164 1176
f 1164 1175 1176
f 1177 1178 1181
f 1178 1182 1181
f 1175 1177 1179
f 1177 1181 1179
f 1176 1175 1180
f 1175 1179 1180
f 1181 1182 1185
f 1182 1186 1185
f 1179 1181 1183
f 1181 1185 1183
f 1180 1179 1184
f 1179 1183 1184
f 1185 1186 1189
f 1186 1190 1189
f 1183 1185 1187
f 1185 1189 1187
f 1184 1183 1188
f 1183 1187 1188
f 1189 1190 1193
f 1190 1194 1193
f 1187 1189 1191
f 1189 1193 1191
f 1188 1187 1192
f 1187 1191 1192
f 1193 1194 1197
f 1194 1174 1197
f 1191 1193 1195
f 1193 1197 1195
f 1192 1191 1196
f 1191 1195 1196
f 1170 1173 1200
f 1173 1201 1200
f 1168 1170 1199
f 1170 1200 1199
f 1167 1168 1198
f 1168 1199 1198
f 1200 1201 1204
f 1201 1205 1204
f 1199 1200 1203
f 1200 1204 1203
f 1198 1199 1202
f 1199 1203 1202
f 1204 1205 1208
f 1205 1209 1208
f 1203 1204 1207
f 1204 1208 1207
f 1202 1203 1206
f 1203 1207 1206
f 1208 1209 1212
f 1209 1213 1212
f 1207 1208 1211
f 1208 1212 1211
f 1206 1207 1210
f 1207 1211 1210
f 1212 1213 1216
f 1213 1217 1216
f 1211 1212 1215
f 1212 1216 1215
f 1210 1211 1214
f 1211 1215 1214
f 1216 1217 1219
f 1217 1172 1219
f 1215 1216 1218
f 1216 1219 1218
f 1214 1215 1166
f 1215 1218 1166
f 1220 1221 1249
f 1221 1250 1249
f 1247 1248 1227
f 1248 1226 1227
f 1228 1292 1307
f 1292 1229 1307
f 1231 1230 1233
f 1230 1232 1233
f 1235 1234 1237
f 1234 1348 1237
f 1237 1236 1238
f 1236 1291 1238
f 1227 1220 1247
f 1220 1249 1247
f 1224 1225 1239
f 1225 1240 1239
f 1239 1240 1241
f 1240 1242 1241
f 1241 1242 1243
f 1242 1244 1243
f 1243 1244 1245
f 1244 1246 1245
f 1245 1246 1222
f 1246 1223 1222
f 1225 1223 1240
f 1223 1246 1240
f 1240 1246 1242
f 1246 1244 1242
f 1250 1254 1249
f 1254 1253 1249
f 1249 1253 1247
f 1253 1251 1247
f 1247 1251 1248
f 1251 1252 1248
f 1254 1258 1253
f 1258 1257 1253
f 1253 1257 1251
f 1257 1255 1251
f 1251 1255 1252
f 1255 1256 1252
f 1258 1262 1257
f 1262 1261 1257
f 1257 1261 1255
f 1261 1259 1255
f 1255 1259 1256
f 1259 1260 1256
f 1262 1266 1261
f 1266 1265 1261
f 1261 1265 1259
f 1265 1263 1259
f 1259 1263 1260
f 1263 1264 1260
f 1266 1270 1265
f 1270 1269 1265
f 1265 1269 1263
f 1269 1267 1263
f 1263 1267 1264
f 1267 1268 1264
f 1268 1267 1224
f 1267 1225 1224
f 1267 1269 1225
f 1269 1223 1225
f 1269 1270 1223
f 1270 1222 1223
f 1220 1227 1271
f 1227 1274 1271
f 1227 1226 1274
f 1226 1273 1274
f 1221 1220 1272
f 1220 1271 1272
f 1271 1274 1275
f 1274 1278 1275
f 1274 1273 1278
f 1273 1277 1278
f 1272 1271 1276
f 1271 1275 1276
f 1275 1278 1279
f 1278 1282 1279
f 1278 1277 1282
f 1277 1281 1282
f 1276 1275 1280
f 1275 1279 1280
f 1279 1282 1283
f 1282 1286 1283
f 1282 1281 1286
f 1281 1285 1286
f 1280 1279 1284
f 1279 1283 1284
f 1283 1286 1287
f 1286 1290 1287
f 1286 1285 1290
f 1285 1289 1290
f 1284 1283 1288
f 1283 1287 1288
f 1287 1290 1238
f 1290 1228 1238
f 1290 1289 1228
f 1289 1292 1228
f 1288 1287 1291
f 1287 1238 1291
f 1234 1235 1293
f 1235 1294 1293
f 1293 1294 1295
f 1294 1296 1295
f 1295 1296 1297
f 1296 1298 1297
f 1297 1298 1299
f 1298 1300 1299
f 1299 1300 1232
f 1300 1233 1232
f 1235 1233 1294
f 1233 1300 1294
f 1294 1300 1296
f 1300 1298 1296
f 1230 1231 1301
f 1231 1302 1301
f 1301 1302 1303
f 1302 1304 1303
f 1303 1304 1305
f 1304 1306 1305
f 1305 1306 1229
f 1306 1307 1229
f 1306 1304 1307
f 1304 1237 1307
f 1237 1304 1231
f 1304 1302 1231
f 1231 1233 1237
f 1233 1235 1237
f 1238 1228 1237
f 1228 1307 1237
f 1319 1318 1316
f 1318 1317 1316
f 1320 1321 1319
f 1321 1318 1319
f 1335 1334 1312
f 1334 1313 1312
f 1308 1309 1311
f 1309 1349 1311
f 1311 1310 1313
f 1310 1312 1313
f 1316 1317 1315
f 1317 1314 1315
f 1321 1320 1343
f 1320 1342 1343
f 1323 1322 1332
f 1322 1333 1332
f 1321 1313 1318
f 1313 1334 1318
f 1315 1314 1335
f 1314 1334 1335
f 1313 1321 1311
f 1321 1343 1311
f 1309 1308 1325
f 1308 1324 1325
f 1325 1324 1327
f 1324 1326 1327
f 1327 1326 1329
f 1326 1328 1329
f 1329 1328 1331
f 1328 1330 1331
f 1331 1330 1333
f 1330 1332 1333
f 1308 1332 1324
f 1332 1330 1324
f 1324 1330 1326
f 1330 1328 1326
f 1314 1317 1334
f 1317 1318 1334
f 1322 1323 1336
f 1323 1337 1336
f 1336 1337 1338
f 1337 1339 1338
f 1338 1339 1340
f 1339 1341 1340
f 1340 1341 1342
f 1341 1343 1342
f 1311 1343 1339
f 1343 1341 1339
f 1311 1339 1323
f 1339 1337 1323
f 1311 1323 1308
f 1323 1332 1308
f 1350 1351 1353
f 1351 1598 1353
f 1353 1352 1355
f 1352 1599 1355
f 1355 1354 1409
f 1354 1356 1409
f 1358 1357 1360
f 1357 1600 1360
f 1360 1359 1362
f 1359 1601 1362
f 1362 1361 1363
f 1361 1390 1363
f 1365 1364 1367
f 1364 1366 1367
f 1398 1397 1368
f 1397 1369 1368
f 1371 1370 1373
f 1370 1372 1373
f 1375 1374 1372
f 1374 1373 1372
f 1376 1377 1375
f 1377 1374 1375
f 1351 1350 1380
f 1350 1381 1380
f 1378 1381 1377
f 1381 1374 1377
f 1379 1378 1376
f 1378 1377 1376
f 1353 1371 1350
f 1371 1373 1350
f 1380 1381 1379
f 1381 1378 1379
f 1374 1381 1373
f 1381 1350 1373
f 1364 1365 1382
f 1365 1383 1382
f 1382 1383 1384
f 1383 1385 1384
f 1384 1385 1386
f 1385 1387 1386
f 1386 1387 1388
f 1387 1389 1388
f 1388 1389 1390
f 1389 1363 1390
f 1365 1363 1383
f 1363 1389 1383
f 1383 1389 1385
f 1389 1387 1385
f 1367 1366 1392
f 1366 1391 1392
f 1392 1391 1394
f 1391 1393 1394
f 1394 1393 1396
f 1393 1395 1396
f 1396 1395 1398
f 1395 1397 1398
f 1362 1367 1394
f 1367 1392 1394
f 1362 1394 1398
f 1394 1396 1398
f 1409 1358 1355
f 1358 1360 1355
f 1360 1368 1355
f 1368 1400 1355
f 1368 1369 1400
f 1369 1399 1400
f 1400 1399 1417
f 1399 1416 1417
f 1362 1398 1360
f 1398 1368 1360
f 1363 1365 1362
f 1365 1367 1362
f 1357 1358 1401
f 1358 1402 1401
f 1401 1402 1403
f 1402 1404 1403
f 1403 1404 1405
f 1404 1406 1405
f 1405 1406 1407
f 1406 1408 1407
f 1407 1408 1356
f 1408 1409 1356
f 1358 1409 1402
f 1409 1408 1402
f 1402 1408 1404
f 1408 1406 1404
f 1355 1400 1353
f 1400 1417 1353
f 1370 1371 1410
f 1371 1411 1410
f 1410 1411 1412
f 1411 1413 1412
f 1412 1413 1414
f 1413 1415 1414
f 1414 1415 1416
f 1415 1417 1416
f 1353 1413 1371
f 1413 1411 1371
f 1353 1417 1413
f 1417 1415 1413
f 1418 1419 1472
f 1419 1420 1472
f 1422 1421 1449
f 1421 1450 1449
f 1423 1418 1473
f 1418 1472 1473
f 1424 1422 1451
f 1422 1449 1451
f 1425 1423 1426
f 1423 1473 1426
f 1427 1424 1428
f 1424 1451 1428
f 1423 1425 1431
f 1425 1432 1431
f 1418 1423 1429
f 1423 1431 1429
f 1419 1418 1430
f 1418 1429 1430
f 1431 1432 1435
f 1432 1436 1435
f 1429 1431 1433
f 1431 1435 1433
f 1430 1429 1434
f 1429 1433 1434
f 1435 1436 1439
f 1436 1440 1439
f 1433 1435 1437
f 1435 1439 1437
f 1434 1433 1438
f 1433 1437 1438
f 1439 1440 1443
f 1440 1444 1443
f 1437 1439 1441
f 1439 1443 1441
f 1438 1437 1442
f 1437 1441 1442
f 1443 1444 1447
f 1444 1448 1447
f 1441 1443 1445
f 1443 1447 1445
f 1442 1441 1446
f 1441 1445 1446
f 1447 1448 1451
f 1448 1428 1451
f 1445 1447 1449
f 1447 1451 1449
f 1446 1445 1450
f 1445 1449 1450
f 1424 1427 1454
f 1427 1455 1454
f 1422 1424 1453
f 1424 1454 1453
f 1421 1422 1452
f 1422 1453 1452
f 1454 1455 1458
f 1455 1459 1458
f 1453 1454 1457
f 1454 1458 1457
f 1452 1453 1456
f 1453 1457 1456
f 1458 1459 1462
f 1459 1463 1462
f 1457 1458 1461
f 1458 1462 1461
f 1456 1457 1460
f 1457 1461 1460
f 1462 1463 1466
f 1463 1467 1466
f 1461 1462 1465
f 1462 1466 1465
f 1460 1461 1464
f 1461 1465 1464
f 1466 1467 1470
f 1467 1471 1470
f 1465 1466 1469
f 1466 1470 1469
f 1464 1465 1468
f 1465 1469 1468
f 1470 1471 1473
f 1471 1426 1473
f 1469 1470 1472
f 1470 1473 1472
f 1468 1469 1420
f 1469 1472 1420
f 1474 1475 1503
f 1475 1504 1503
f 1501 1502 1481
f 1502 1480 1481
f 1482 1546 1561
f 1546 1483 1561
f 1485 1484 1487
f 1484 1486 1487
f 1489 1488 1491
f 1488 1602 1491
f 1491 1490 1492
f 1490 1545 1492
f 1481 1474 1501
f 1474 1503 1501
f 1478 1479 1493
f 1479 1494 1493
f 1493 1494 1495
f 1494 1496 1495
f 1495 1496 1497
f 1496 1498 1497
f 1497 1498 1499
f 1498 1500 1499
f 1499 1500 1476
f 1500 1477 1476
f 1479 1477 1494
f 1477 1500 1494
f 1494 1500 1496
f 1500 1498 1496
f 1504 1508 1503
f 1508 1507 1503
f 1503 1507 1501
f 1507 1505 1501
f 1501 1505 1502
f 1505 1506 1502
f 1508 1512 1507
f 1512 1511 1507
f 1507 1511 1505
f 1511 1509 1505
f 1505 1509 1506
f 1509 1510 1506
f 1512 1516 1511
f 1516 1515 1511
f 1511 1515 1509
f 1515 1513 1509
f 1509 1513 1510
f 1513 1514 1510
f 1516 1520 1515
f 1520 1519 1515
f 1515 1519 1513
f 1519 1517 1513
f 1513 1517 1514
f 1517 1518 1514
f 1520 1524 1519
f 1524 1523 1519
f 1519 1523 1517
f 1523 1521 1517
f 1517 1521 1518
f 1521 1522 1518
f 1522 1521 1478
f 1521 1479 1478
f 1521 1523 1479
f 1523 1477 1479
f 1523 1524 1477
f 1524 1476 1477
f 1474 1481 1525
f 1481 1528 1525
f 1481 1480 1528
f 1480 1527 1528
f 1475 1474 1526
f 1474 1525 1526
f 1525 1528 1529
f 1528 1532 1529
f 1528 1527 1532
f 1527 1531 1532
f 1526 1525 1530
f 1525 1529 1530
f 1529 1532 1533
f 1532 1536 1533
f 1532 1531 1536
f 1531 1535 1536
f 1530 1529 1534
f 1529 1533 1534
f 1533 1536 1537
f 1536 1540 1537
f 1536 1535 1540
f 1535 1539 1540
f 1534 1533 1538
f 1533 1537 1538
f 1537 1540 1541
f 1540 1544 1541
f 1540 1539 1544
f 1539 1543 1544
f 1538 1537 1542
f 1537 1541 1542
f 1541 1544 1492
f 1544 1482 1492
f 1544 1543 1482
f 1543 1546 1482
f 1542 1541 1545
f 1541 1492 1545
f 1488 1489 1547
f 1489 1548 1547
f 1547 1548 1549
f 1548 1550 1549
f 1549 1550 1551
f 1550 1552 1551
f 1551 1552 1553
f 1552 1554 1553
f 1553 1554 1486
f 1554 1487 1486
f 1489 1487 1548
f 1487 1554 1548
f 1548 1554 1550
f 1554 1552 1550
f 1484 1485 1555
f 1485 1556 1555
f 1555 1556 1557
f 1556 1558 1557
f 1557 1558 1559
f 1558 1560 1559
f 1559 1560 1483
f 1560 1561 1483
f 1560 1558 1561
f 1558 1491 1561
f 1491 1558 1485
f 1558 1556 1485
f 1485 1487 1491
f 1487 1489 1491
f 1492 1482 1491
f 1482 1561 1491
f 1573 1572 1570
f 1572 1571 1570
f 1574 1575 1573
f 1575 1572 1573
f 1589 1588 1566
f 1588 1567 1566
f 1562 1563 1565
f 1563 1603 1565
f 1565 1564 1567
f 1564 1566 1567
f 1570 1571 1569
f 1571 1568 1569
f 1575 1574 1597
f 1574 1596 1597
f 1577 1576 1586
f 1576 1587 1586
f 1575 1567 1572
f 1567 1588 1572
f 1569 1568 1589
f 1568 1588 1589
f 1567 1575 1565
f 1575 1597 1565
f 1563 1562 1579
f 1562 1578 1579
f 1579 1578 1581
f 1578 1580 1581
f 1581 1580 1583
f 1580 1582 1583
f 1583 1582 1585
f 1582 1584 1585
f 1585 1584 1587
f 1584 1586 1587
f 1562 1586 1578
f 1586 1584 1578
f 1578 1584 1580
f 1584 1582 1580
f 1568 1571 1588
f 1571 1572 1588
f 1576 1577 1590
f 1577 1591 1590
f 1590 1591 1592
f 1591 1593 1592
f 1592 1593 1594
f 1593 1595 1594
f 1594 1595 1596
f 1595 1597 1596
f 1565 1597 1593
f 1597 1595 1593
f 1565 1593 1577
f 1593 1591 1577
f 1565 1577 1562
f 1577 1586 1562
f 1605 1604 1841
f 1604 1773 1841
f 1607 1606 1834
f 1606 1767 1834
f 1619 1618 1828
f 1618 1763 1828
f 1611 1610 1837
f 1610 1770 1837
f 1605 1611 1836
f 1611 1837 1836
f 1835 1764 1765
f 1764 1833 1765
f 1609 1608 1613
f 1608 1612 1613
f 1613 1612 1615
f 1612 1614 1615
f 1615 1614 1617
f 1614 1616 1617
f 1617 1616 1619
f 1616 1618 1619
f 1607 1609 1615
f 1609 1613 1615
f 1607 1615 1619
f 1615 1617 1619
f 1607 1619 1830
f 1619 1828 1830
f 1843 1775 1840
f 1775 1774 1840
f 1829 1762 1760
f 1762 1761 1760
f 1839 1768 1769
f 1768 1771 1769
f 1610 1611 1620
f 1611 1621 1620
f 1620 1621 1622
f 1621 1623 1622
f 1622 1623 1624
f 1623 1625 1624
f 1624 1625 1626
f 1625 1627 1626
f 1605 1623 1611
f 1623 1621 1611
f 1605 1627 1623
f 1627 1625 1623
f 1628 1629 1682
f 1629 1630 1682
f 1632 1631 1659
f 1631 1660 1659
f 1633 1628 1683
f 1628 1682 1683
f 1634 1632 1661
f 1632 1659 1661
f 1635 1633 1636
f 1633 1683 1636
f 1637 1634 1638
f 1634 1661 1638
f 1633 1635 1641
f 1635 1642 1641
f 1628 1633 1639
f 1633 1641 1639
f 1629 1628 1640
f 1628 1639 1640
f 1641 1642 1645
f 1642 1646 1645
f 1639 1641 1643
f 1641 1645 1643
f 1640 1639 1644
f 1639 1643 1644
f 1645 1646 1649
f 1646 1650 1649
f 1643 1645 1647
f 1645 1649 1647
f 1644 1643 1648
f 1643 1647 1648
f 1649 1650 1653
f 1650 1654 1653
f 1647 1649 1651
f 1649 1653 1651
f 1648 1647 1652
f 1647 1651 1652
f 1653 1654 1657
f 1654 1658 1657
f 1651 1653 1655
f 1653 1657 1655
f 1652 1651 1656
f 1651 1655 1656
f 1657 1658 1661
f 1658 1638 1661
f 1655 1657 1659
f 1657 1661 1659
f 1656 1655 1660
f 1655 1659 1660
f 1634 1637 1664
f 1637 1665 1664
f 1632 1634 1663
f 1634 1664 1663
f 1631 1632 1662
f 1632 1663 1662
f 1664 1665 1668
f 1665 1669 1668
f 1663 1664 1667
f 1664 1668 1667
f 1662 1663 1666
f 1663 1667 1666
f 1668 1669 1672
f 1669 1673 1672
f 1667 1668 1671
f 1668 1672 1671
f 1666 1667 1670
f 1667 1671 1670
f 1672 1673 1676
f 1673 1677 1676
f 1671 1672 1675
f 1672 1676 1675
f 1670 1671 1674
f 1671 1675 1674
f 1676 1677 1680
f 1677 1681 1680
f 1675 1676 1679
f 1676 1680 1679
f 1674 1675 1678
f 1675 1679 1678
f 1680 1681 1683
f 1681 1636 1683
f 1679 1680 1682
f 1680 1683 1682
f 1678 1679 1630
f 1679 1682 1630
f 1686 1687 1690
f 1687 1691 1690
f 1690 1691 1692
f 1691 1693 1692
f 1692 1693 1694
f 1693 1695 1694
f 1694 1695 1696
f 1695 1697 1696
f 1696 1697 1684
f 1697 1685 1684
f 1687 1685 1691
f 1685 1697 1691
f 1691 1697 1693
f 1697 1695 1693
f 1818 1705 1817
f 1705 1704 1817
f 1817 1704 1815
f 1704 1702 1815
f 1815 1702 1816
f 1702 1703 1816
f 1705 1709 1704
f 1709 1708 1704
f 1704 1708 1702
f 1708 1706 1702
f 1702 1706 1703
f 1706 1707 1703
f 1709 1713 1708
f 1713 1712 1708
f 1708 1712 1706
f 1712 1710 1706
f 1706 1710 1707
f 1710 1711 1707
f 1711 1710 1686
f 1710 1687 1686
f 1710 1712 1687
f 1712 1685 1687
f 1712 1713 1685
f 1713 1684 1685
f 1819 1822 1718
f 1822 1721 1718
f 1822 1821 1721
f 1821 1720 1721
f 1820 1819 1719
f 1819 1718 1719
f 1718 1721 1826
f 1721 1824 1826
f 1721 1720 1824
f 1720 1823 1824
f 1719 1718 1825
f 1718 1826 1825
f 1698 1699 1700
f 1699 1701 1700
f 1714 1715 1717
f 1715 1716 1717
f 1688 1723 1689
f 1723 1722 1689
f 1735 1734 1732
f 1734 1733 1732
f 1736 1737 1735
f 1737 1734 1735
f 1751 1750 1728
f 1750 1729 1728
f 1724 1725 1727
f 1725 1827 1727
f 1727 1726 1729
f 1726 1728 1729
f 1732 1733 1731
f 1733 1730 1731
f 1737 1736 1759
f 1736 1758 1759
f 1739 1738 1748
f 1738 1749 1748
f 1737 1729 1734
f 1729 1750 1734
f 1731 1730 1751
f 1730 1750 1751
f 1729 1737 1727
f 1737 1759 1727
f 1725 1724 1741
f 1724 1740 1741
f 1741 1740 1743
f 1740 1742 1743
f 1743 1742 1745
f 1742 1744 1745
f 1745 1744 1747
f 1744 1746 1747
f 1747 1746 1749
f 1746 1748 1749
f 1724 1748 1740
f 1748 1746 1740
f 1740 1746 1742
f 1746 1744 1742
f 1730 1733 1750
f 1733 1734 1750
f 1738 1739 1752
f 1739 1753 1752
f 1752 1753 1754
f 1753 1755 1754
f 1754 1755 1756
f 1755 1757 1756
f 1756 1757 1758
f 1757 1759 1758
f 1727 1759 1755
f 1759 1757 1755
f 1727 1755 1739
f 1755 1753 1739
f 1727 1739 1724
f 1739 1748 1724
f 1834 1766 1607
f 1766 1609 1607
f 1766 1832 1609
f 1832 1608 1609
f 1830 1831 1607
f 1831 1814 1607
f 1836 1838 1605
f 1838 1813 1605
f 1842 1772 1627
f 1772 1626 1627
f 1841 1842 1605
f 1842 1627 1605
f 1777 1789 1776
f 1789 1788 1776
f 1784 1796 1783
f 1796 1795 1783
f 1781 1793 1780
f 1793 1792 1780
f 1776 1788 1787
f 1788 1799 1787
f 1778 1790 1777
f 1790 1789 1777
f 1785 1797 1784
f 1797 1796 1784
f 1782 1794 1781
f 1794 1793 1781
f 1779 1791 1778
f 1791 1790 1778
f 1786 1798 1785
f 1798 1797 1785
f 1783 1795 1782
f 1795 1794 1782
f 1780 1792 1779
f 1792 1791 1779
f 1787 1799 1786
f 1799 1798 1786
f 1794 1806 1793
f 1806 1805 1793
f 1791 1803 1790
f 1803 1802 1790
f 1798 1810 1797
f 1810 1809 1797
f 1795 1807 1794
f 1807 1806 1794
f 1792 1804 1791
f 1804 1803 1791
f 1799 1811 1798
f 1811 1810 1798
f 1789 1801 1788
f 1801 1800 1788
f 1796 1808 1795
f 1808 1807 1795
f 1793 1805 1792
f 1805 1804 1792
f 1788 1800 1799
f 1800 1811 1799
f 1790 1802 1789
f 1802 1801 1789
f 1806 1812 1805
f 1803 1812 1802
f 1810 1812 1809
f 1807 1812 1806
f 1804 1812 1803
f 1811 1812 1810
f 1801 1812 1800
f 1808 1812 1807
f 1805 1812 1804
f 1800 1812 1811
f 1802 1812 1801
f 1809 1812 1808
f 1797 1809 1796
f 1809 1808 1796
