{"accessors" : [{"bufferView" : 0, "byteOffset" : 0, "componentType" : 5123, "count" : 2856, "type" : "SCALAR", "max" : [2437], "min" : [0]}, {"bufferView" : 1, "byteOffset" : 0, "componentType" : 5126, "count" : 2438, "type" : "VEC3", "max" : [3.200000047683716, 2.6519999504089355, 7.699999809265137], "min" : [-4, -5.300000190734863, -2.6429998874664307], "name" : "POSITION"}, {"bufferView" : 1, "byteOffset" : 12, "componentType" : 5126, "count" : 2438, "type" : "VEC2", "max" : [0.8500000238418579, 0.9399999976158142], "min" : [0.014999999664723873, 0.014999985694885254], "name" : "TEXCOORD_0"}, {"bufferView" : 0, "byteOffset" : 5712, "componentType" : 5123, "count" : 1890, "type" : "SCALAR", "max" : [1881], "min" : [0]}, {"bufferView" : 2, "byteOffset" : 0, "componentType" : 5126, "count" : 1882, "type" : "VEC3", "max" : [2.5, 4.400000095367432, 1.8370000123977661], "min" : [-2.5, -1.3289999961853027, -9.359000205993652], "name" : "POSITION"}, {"bufferView" : 2, "byteOffset" : 12, "componentType" : 5126, "count" : 1882, "type" : "VEC2", "max" : [0.9929999709129333, 0.9909999966621399], "min" : [0.009999999776482582, 0.022000014781951904], "name" : "TEXCOORD_0"}, {"bufferView" : 0, "byteOffset" : 9492, "componentType" : 5123, "count" : 2856, "type" : "SCALAR", "max" : [2437], "min" : [0]}, {"bufferView" : 3, "byteOffset" : 0, "componentType" : 5126, "count" : 2438, "type" : "VEC3", "max" : [4, 2.6519999504089355, 7.699999809265137], "min" : [-3.200000047683716, -5.300000190734863, -2.6429998874664307], "name" : "POSITION"}, {"bufferView" : 3, "byteOffset" : 12, "componentType" : 5126, "count" : 2438, "type" : "VEC2", "max" : [0.8500000238418579, 0.9399999976158142], "min" : [0.014999999664723873, 0.014999985694885254], "name" : "TEXCOORD_0"}, {"bufferView" : 0, "byteOffset" : 15204, "componentType" : 5123, "count" : 4500, "type" : "SCALAR", "max" : [4449], "min" : [0]}, {"bufferView" : 4, "byteOffset" : 0, "componentType" : 5126, "count" : 4450, "type" : "VEC3", "max" : [7.699999809265137, 18.600000381469727, 3.9600000381469727], "min" : [-7.699999809265137, 0.019999999552965164, -3.9600000381469727], "name" : "POSITION"}, {"bufferView" : 4, "byteOffset" : 12, "componentType" : 5126, "count" : 4450, "type" : "VEC2", "max" : [0.9729999899864197, 0.9950000047683716], "min" : [0.03799999877810478, 0.0059999823570251465], "name" : "TEXCOORD_0"}, {"bufferView" : 0, "byteOffset" : 24204, "componentType" : 5123, "count" : 3768, "type" : "SCALAR", "max" : [3041], "min" : [0]}, {"bufferView" : 5, "byteOffset" : 0, "componentType" : 5126, "count" : 3042, "type" : "VEC3", "max" : [7.099999904632568, 4.800000190734863, 3.9600000381469727], "min" : [-7.099999904632568, -8.39900016784668, -3.9600000381469727], "name" : "POSITION"}, {"bufferView" : 5, "byteOffset" : 12, "componentType" : 5126, "count" : 3042, "type" : "VEC2", "max" : [0.9909999966621399, 0.9909999966621399], "min" : [0.00800000037997961, 0.008000016212463379], "name" : "TEXCOORD_0"}, {"bufferView" : 0, "byteOffset" : 31740, "componentType" : 5123, "count" : 1152, "type" : "SCALAR", "max" : [933], "min" : [0]}, {"bufferView" : 6, "byteOffset" : 0, "componentType" : 5126, "count" : 934, "type" : "VEC3", "max" : [3.5, 3.5999999046325684, 4.360000133514404], "min" : [-3.700000047683716, -11.180000305175781, -3.5999999046325684], "name" : "POSITION"}, {"bufferView" : 6, "byteOffset" : 12, "componentType" : 5126, "count" : 934, "type" : "VEC2", "max" : [0.9319999814033508, 0.9819999933242798], "min" : [0.2199999988079071, 0.026000022888183594], "name" : "TEXCOORD_0"}, {"bufferView" : 0, "byteOffset" : 34044, "componentType" : 5123, "count" : 1152, "type" : "SCALAR", "max" : [881], "min" : [0]}, {"bufferView" : 7, "byteOffset" : 0, "componentType" : 5126, "count" : 882, "type" : "VEC3", "max" : [3.700000047683716, 3.5999999046325684, 4.360000133514404], "min" : [-3.5, -11.180000305175781, -3.5999999046325684], "name" : "POSITION"}, {"bufferView" : 7, "byteOffset" : 12, "componentType" : 5126, "count" : 882, "type" : "VEC2", "max" : [0.9319999814033508, 0.9819999933242798], "min" : [0.2199999988079071, 0.026000022888183594], "name" : "TEXCOORD_0"}, {"bufferView" : 0, "byteOffset" : 36348, "componentType" : 5123, "count" : 480, "type" : "SCALAR", "max" : [478], "min" : [0]}, {"bufferView" : 8, "byteOffset" : 0, "componentType" : 5126, "count" : 479, "type" : "VEC3", "max" : [1.600000023841858, 15.979999542236328, 1.600000023841858], "min" : [-1.600000023841858, -15.979999542236328, -1.600000023841858], "name" : "POSITION"}, {"bufferView" : 8, "byteOffset" : 12, "componentType" : 5126, "count" : 479, "type" : "VEC2", "max" : [0.9940000176429749, 0.9829999804496765], "min" : [0.006000000052154064, 0.0059999823570251465], "name" : "TEXCOORD_0"}, {"bufferView" : 0, "byteOffset" : 37308, "componentType" : 5123, "count" : 3456, "type" : "SCALAR", "max" : [3455], "min" : [0]}, {"bufferView" : 9, "byteOffset" : 0, "componentType" : 5126, "count" : 3456, "type" : "VEC3", "max" : [5.099999904632568, 11.399999618530273, 5.099999904632568], "min" : [-5.099999904632568, 0.019999999552965164, -5.099999904632568], "name" : "POSITION"}, {"bufferView" : 9, "byteOffset" : 12, "componentType" : 5126, "count" : 3456, "type" : "VEC2", "max" : [0.9959999918937683, 0.9879999756813049], "min" : [0.006000000052154064, 0.014999985694885254], "name" : "TEXCOORD_0"}, {"bufferView" : 0, "byteOffset" : 44220, "componentType" : 5123, "count" : 3024, "type" : "SCALAR", "max" : [3019], "min" : [0]}, {"bufferView" : 10, "byteOffset" : 0, "componentType" : 5126, "count" : 3020, "type" : "VEC3", "max" : [3, 15.800000190734863, 3], "min" : [-3, 0, -3], "name" : "POSITION"}, {"bufferView" : 10, "byteOffset" : 12, "componentType" : 5126, "count" : 3020, "type" : "VEC2", "max" : [0.9850000143051147, 0.9810000061988831], "min" : [0.01899999938905239, 0.010999977588653564], "name" : "TEXCOORD_0"}, {"bufferView" : 0, "byteOffset" : 50268, "componentType" : 5123, "count" : 2472, "type" : "SCALAR", "max" : [838], "min" : [0]}, {"bufferView" : 11, "byteOffset" : 0, "componentType" : 5126, "count" : 839, "type" : "VEC3", "max" : [6.394000053405762, 3.6519999504089355, 6.377999782562256], "min" : [-6.394000053405762, -7.664999961853027, -7.3429999351501465], "name" : "POSITION"}], "asset" : {"generator" : "Aspose.3D 25.3.0", "version" : "2.0"}, "buffers" : [{"uri" : "data:application/octet-stream;base64,", "byteLength" : 525748}], "bufferViews" : [{"buffer" : 0, "byteOffset" : 0, "byteLength" : 55212, "target" : 34963}, {"buffer" : 0, "byteOffset" : 55216, "byteLength" : 48760, "byteStride" : 20, "target" : 34962}, {"buffer" : 0, "byteOffset" : 103980, "byteLength" : 37640, "byteStride" : 20, "target" : 34962}, {"buffer" : 0, "byteOffset" : 141624, "byteLength" : 48760, "byteStride" : 20, "target" : 34962}, {"buffer" : 0, "byteOffset" : 190388, "byteLength" : 89000, "byteStride" : 20, "target" : 34962}, {"buffer" : 0, "byteOffset" : 279392, "byteLength" : 60840, "byteStride" : 20, "target" : 34962}, {"buffer" : 0, "byteOffset" : 340236, "byteLength" : 18680, "byteStride" : 20, "target" : 34962}, {"buffer" : 0, "byteOffset" : 358920, "byteLength" : 17640, "byteStride" : 20, "target" : 34962}, {"buffer" : 0, "byteOffset" : 376564, "byteLength" : 9580, "byteStride" : 20, "target" : 34962}, {"buffer" : 0, "byteOffset" : 386148, "byteLength" : 69120, "byteStride" : 20, "target" : 34962}, {"buffer" : 0, "byteOffset" : 455272, "byteLength" : 60400, "byteStride" : 20, "target" : 34962}, {"buffer" : 0, "byteOffset" : 515676, "byteLength" : 10068, "byteStride" : 12, "target" : 34962}], "images" : [{"uri" : "textures/2/official/color/3814d416.png"}, {"uri" : "textures/2/official/color/3815d171.png"}, {"uri" : "textures/2/official/color/3816d171.png"}, {"uri" : "textures/2/official/color/3817d171.png"}, {"uri" : "textures/2/official/color/3626d696.png"}], "materials" : [{"name" : "MB|5", "pbrMetallicRoughness" : {"baseColorFactor" : [0.6653872982754769, 0.5028864580233624, 0.20155625378383743, 1], "metallicFactor" : 1, "roughnessFactor" : 1}, "emissiveFactor" : [0, 0, 0], "alphaMode" : "OPAQUE", "doubleSided" : false}, {"name" : "MB|283", "pbrMetallicRoughness" : {"baseColorFactor" : [0.9559733532482866, 0.6375968739867731, 0.4396571738310091, 1], "metallicFactor" : 1, "roughnessFactor" : 1}, "emissiveFactor" : [0, 0, 0], "alphaMode" : "OPAQUE", "doubleSided" : false}, {"name" : "MB|5|2o8978", "pbrMetallicRoughness" : {"baseColorFactor" : [1, 1, 1, 1], "baseColorTexture" : {"index" : 0, "texCoord" : 0}, "metallicFactor" : 1, "roughnessFactor" : 1}, "emissiveFactor" : [0, 0, 0], "alphaMode" : "OPAQUE", "doubleSided" : false}, {"name" : "MB|5|2o8761", "pbrMetallicRoughness" : {"baseColorFactor" : [1, 1, 1, 1], "baseColorTexture" : {"index" : 1, "texCoord" : 0}, "metallicFactor" : 1, "roughnessFactor" : 1}, "emissiveFactor" : [0, 0, 0], "alphaMode" : "OPAQUE", "doubleSided" : false}, {"name" : "MB|5|2o8762", "pbrMetallicRoughness" : {"baseColorFactor" : [1, 1, 1, 1], "baseColorTexture" : {"index" : 2, "texCoord" : 0}, "metallicFactor" : 1, "roughnessFactor" : 1}, "emissiveFactor" : [0, 0, 0], "alphaMode" : "OPAQUE", "doubleSided" : false}, {"name" : "MB|5|2o8763", "pbrMetallicRoughness" : {"baseColorFactor" : [1, 1, 1, 1], "baseColorTexture" : {"index" : 3, "texCoord" : 0}, "metallicFactor" : 1, "roughnessFactor" : 1}, "emissiveFactor" : [0, 0, 0], "alphaMode" : "OPAQUE", "doubleSided" : false}, {"name" : "MB|43", "pbrMetallicRoughness" : {"baseColorFactor" : [0.02121901037134225, 0.11443537381770343, 0.450785782828426, 1], "metallicFactor" : 1, "roughnessFactor" : 1}, "emissiveFactor" : [0, 0, 0], "alphaMode" : "OPAQUE", "doubleSided" : false}, {"name" : "MB|283|2o8760", "pbrMetallicRoughness" : {"baseColorFactor" : [1, 1, 1, 1], "baseColorTexture" : {"index" : 4, "texCoord" : 0}, "metallicFactor" : 1, "roughnessFactor" : 1}, "emissiveFactor" : [0, 0, 0], "alphaMode" : "OPAQUE", "doubleSided" : false}, {"name" : "MB|2004", "pbrMetallicRoughness" : {"baseColorFactor" : [0.5271151256969157, 0.5271151256969157, 0.5271151256969157, 1], "metallicFactor" : 1, "roughnessFactor" : 1}, "emissiveFactor" : [0, 0, 0], "alphaMode" : "OPAQUE", "doubleSided" : false}, {"name" : "MB|38", "pbrMetallicRoughness" : {"baseColorFactor" : [0.28314874041918053, 0.08021982030622662, 0.011612245176281512, 1], "metallicFactor" : 1, "roughnessFactor" : 1}, "emissiveFactor" : [0, 0, 0], "alphaMode" : "OPAQUE", "doubleSided" : false}], "meshes" : [{"primitives" : [{"attributes" : {"POSITION" : 1, "TEXCOORD_0" : 2}, "indices" : 0, "material" : 0, "mode" : 4}], "name" : ""}, {"primitives" : [{"attributes" : {"POSITION" : 4, "TEXCOORD_0" : 5}, "indices" : 3, "material" : 1, "mode" : 4}], "name" : ""}, {"primitives" : [{"attributes" : {"POSITION" : 7, "TEXCOORD_0" : 8}, "indices" : 6, "material" : 0, "mode" : 4}], "name" : ""}, {"primitives" : [{"attributes" : {"POSITION" : 10, "TEXCOORD_0" : 11}, "indices" : 9, "material" : 2, "mode" : 4}], "name" : ""}, {"primitives" : [{"attributes" : {"POSITION" : 13, "TEXCOORD_0" : 14}, "indices" : 12, "material" : 3, "mode" : 4}], "name" : ""}, {"primitives" : [{"attributes" : {"POSITION" : 16, "TEXCOORD_0" : 17}, "indices" : 15, "material" : 4, "mode" : 4}], "name" : ""}, {"primitives" : [{"attributes" : {"POSITION" : 19, "TEXCOORD_0" : 20}, "indices" : 18, "material" : 5, "mode" : 4}], "name" : ""}, {"primitives" : [{"attributes" : {"POSITION" : 22, "TEXCOORD_0" : 23}, "indices" : 21, "material" : 6, "mode" : 4}], "name" : ""}, {"primitives" : [{"attributes" : {"POSITION" : 25, "TEXCOORD_0" : 26}, "indices" : 24, "material" : 7, "mode" : 4}], "name" : ""}, {"primitives" : [{"attributes" : {"POSITION" : 28, "TEXCOORD_0" : 29}, "indices" : 27, "material" : 8, "mode" : 4}], "name" : ""}, {"primitives" : [{"attributes" : {"POSITION" : 31}, "indices" : 30, "material" : 9, "mode" : 4}], "name" : ""}], "nodes" : [{"matrix" : [0.98451, -0.17534, 0, 0, 0.08899, 0.49967, 0.86163, 0, -0.15108, -0.84828, 0.50753, 0, -28.465, 43.99, -101.8, 1], "mesh" : 0, "name" : "Part.0"}, {"matrix" : [0.98451, -0.17533, 2E-05, 0, 0.04666, 0.26211, 0.9639, 0, -0.16901, -0.94897, 0.26623, 0, -32.56971, 32.34937, -100.82766, 1], "mesh" : 1, "name" : "Part.1"}, {"matrix" : [0.98451, 0.17534, 0, 0, -0.12398, 0.69615, 0.70711, 0, 0.12398, -0.69616, 0.7071, 0, -15.935, 43.99, -101.8, 1], "mesh" : 2, "name" : "Part.2"}, {"matrix" : [0.98451, 0.17533, -2E-05, 0, -0.08749, 0.49137, 0.86654, 0, 0.15194, -0.85312, 0.49909, 0, -11.941, 32.971, -97.809, 1], "mesh" : 1, "name" : "Part.3"}, {"matrix" : [1, 0, 0, 0, 0, 1, 0, 0, 0, 0, 1, 0, -22.2, 35, -101.8, 1], "mesh" : 3, "name" : "Part.4"}, {"matrix" : [1, 0, 0, 0, 0, 1, 0, 0, 0, 0, 1, 0, -22.2, 35, -101.8, 1], "mesh" : 4, "name" : "Part.5"}, {"matrix" : [1, 0, 0, 0, 0, 1, 0, 0, 0, 0, 1, 0, -26.2, 30.2, -101.8, 1], "mesh" : 5, "name" : "Part.6"}, {"matrix" : [0.99756, 0, -0.06976, 0, 0, 1, 0, 0, 0.06976, 0, 0.99756, 0, -18.2, 30.2, -101.8, 1], "mesh" : 6, "name" : "Part.7"}, {"matrix" : [0.97424, -0.20177, -0.10074, 0, 0.14932, 0.24235, 0.95862, 0, -0.16901, -0.94897, 0.26623, 0, -29.1828, 38.51944, -76.68466, 1], "mesh" : 7, "name" : "Part.8"}, {"matrix" : [1, 0, 0, 0, 0, 1, 0, 0, 0, 0, 1, 0, -22.2, 47.8, -101.8, 1], "mesh" : 8, "name" : "Part.9"}, {"matrix" : [-0.97424, 0.20177, 0.10074, 0, 0.14932, 0.24235, 0.95863, 0, 0.16901, 0.94897, -0.26623, 0, -33.4234, 31.63673, -103.90975, 1], "mesh" : 9, "name" : "Part.10"}, {"matrix" : [1, 0, 0, 0, 0, 1, 0, 0, 0, 0, 1, 0, -22.2, 57.4, -101.8, 1], "mesh" : 10, "name" : "Part.11"}], "samplers" : [{"magFilter" : 9729, "minFilter" : 9987, "wrapS" : 10497, "wrapT" : 10497}, {"magFilter" : 9729, "minFilter" : 9987, "wrapS" : 10497, "wrapT" : 10497}, {"magFilter" : 9729, "minFilter" : 9987, "wrapS" : 10497, "wrapT" : 10497}, {"magFilter" : 9729, "minFilter" : 9987, "wrapS" : 10497, "wrapT" : 10497}, {"magFilter" : 9729, "minFilter" : 9987, "wrapS" : 10497, "wrapT" : 10497}], "scene" : 0, "scenes" : [{"nodes" : [0, 1, 2, 3, 4, 5, 6, 7, 8, 9, 10, 11]}], "textures" : [{"sampler" : 0, "source" : 0, "name" : "2o8978"}, {"sampler" : 1, "source" : 1, "name" : "2o8761"}, {"sampler" : 2, "source" : 2, "name" : "2o8762"}, {"sampler" : 3, "source" : 3, "name" : "2o8763"}, {"sampler" : 4, "source" : 4, "name" : "2o8760"}]}